<svg xmlns="http://www.w3.org/2000/svg" xmlns:xlink="http://www.w3.org/1999/xlink" width="321" zoomAndPan="magnify" viewBox="0 0 240.75 141.750002" height="188" preserveAspectRatio="xMidYMid meet" version="1.0"><defs><clipPath id="890f4c0c1d"><path d="M 63.605469 15.445312 L 141 15.445312 L 141 93 L 63.605469 93 Z M 63.605469 15.445312 " clip-rule="nonzero"/></clipPath><clipPath id="712f0d93bf"><path d="M 125 73 L 177.40625 73 L 177.40625 126.25 L 125 126.25 Z M 125 73 " clip-rule="nonzero"/></clipPath><clipPath id="965b908a8b"><path d="M 63.605469 15.445312 L 141 15.445312 L 141 93 L 63.605469 93 Z M 63.605469 15.445312 " clip-rule="nonzero"/></clipPath><clipPath id="bcc350223a"><path d="M 125 73 L 177.40625 73 L 177.40625 126.25 L 125 126.25 Z M 125 73 " clip-rule="nonzero"/></clipPath></defs><g clip-path="url(#890f4c0c1d)"><path fill="#f2c70f" d="M 133.414062 54.160156 C 133.414062 52.601562 133.296875 51.070312 133.074219 49.578125 L 140.445312 46.996094 L 136.511719 35.789062 L 129.097656 38.382812 C 127.914062 36.386719 126.515625 34.535156 124.929688 32.859375 L 129.589844 26.476562 L 119.988281 19.476562 L 115.265625 25.945312 C 112.96875 24.898438 110.523438 24.117188 107.964844 23.65625 L 107.964844 15.5625 L 96.078125 15.5625 L 96.078125 23.792969 C 93.742188 24.277344 91.5 25.023438 89.382812 25.996094 L 84.585938 19.210938 L 74.875 26.0625 L 79.746094 32.949219 C 78.308594 34.480469 77.023438 36.15625 75.917969 37.957031 L 67.984375 34.960938 L 63.785156 46.070312 L 71.761719 49.082031 C 71.488281 50.734375 71.347656 52.429688 71.347656 54.160156 C 71.347656 55.632812 71.453125 57.085938 71.652344 58.503906 L 63.601562 61.324219 L 67.53125 72.53125 L 75.535156 69.726562 C 76.648438 71.632812 77.953125 73.410156 79.429688 75.027344 L 74.453125 81.84375 L 84.058594 88.839844 L 88.960938 82.125 C 91.199219 83.199219 93.585938 84.011719 96.078125 84.523438 L 96.078125 92.757812 L 107.964844 92.757812 L 107.964844 84.664062 C 110.363281 84.226562 112.664062 83.515625 114.832031 82.5625 L 119.460938 89.109375 L 129.167969 82.253906 L 124.601562 75.796875 C 126.148438 74.210938 127.523438 72.464844 128.703125 70.578125 L 136.058594 73.355469 L 140.261719 62.246094 L 132.953125 59.488281 C 133.253906 57.757812 133.414062 55.976562 133.414062 54.160156 Z M 133.414062 54.160156 " fill-opacity="1" fill-rule="nonzero"/></g><path fill="#ffffff" d="M 118.488281 54.160156 C 118.492188 54.699219 118.464844 55.234375 118.410156 55.769531 C 118.359375 56.308594 118.277344 56.839844 118.171875 57.367188 C 118.070312 57.898438 117.9375 58.417969 117.78125 58.933594 C 117.625 59.449219 117.441406 59.957031 117.238281 60.453125 C 117.03125 60.953125 116.800781 61.4375 116.546875 61.914062 C 116.292969 62.390625 116.015625 62.851562 115.714844 63.300781 C 115.414062 63.746094 115.09375 64.179688 114.753906 64.597656 C 114.410156 65.011719 114.046875 65.410156 113.667969 65.792969 C 113.285156 66.171875 112.886719 66.535156 112.46875 66.875 C 112.050781 67.21875 111.621094 67.539062 111.171875 67.839844 C 110.722656 68.136719 110.261719 68.414062 109.785156 68.667969 C 109.308594 68.921875 108.824219 69.152344 108.324219 69.359375 C 107.828125 69.566406 107.320312 69.746094 106.804688 69.902344 C 106.285156 70.058594 105.765625 70.191406 105.234375 70.296875 C 104.707031 70.402344 104.171875 70.480469 103.636719 70.53125 C 103.101562 70.585938 102.5625 70.613281 102.023438 70.613281 C 101.484375 70.613281 100.945312 70.585938 100.410156 70.53125 C 99.871094 70.480469 99.339844 70.402344 98.808594 70.296875 C 98.28125 70.191406 97.757812 70.058594 97.242188 69.902344 C 96.726562 69.746094 96.21875 69.566406 95.722656 69.359375 C 95.222656 69.152344 94.734375 68.921875 94.261719 68.667969 C 93.785156 68.414062 93.324219 68.136719 92.875 67.839844 C 92.425781 67.539062 91.992188 67.21875 91.574219 66.875 C 91.160156 66.535156 90.761719 66.171875 90.378906 65.792969 C 89.996094 65.410156 89.636719 65.011719 89.292969 64.597656 C 88.953125 64.179688 88.628906 63.746094 88.332031 63.300781 C 88.03125 62.851562 87.753906 62.390625 87.5 61.914062 C 87.246094 61.4375 87.015625 60.953125 86.808594 60.453125 C 86.601562 59.957031 86.421875 59.449219 86.265625 58.933594 C 86.109375 58.417969 85.976562 57.898438 85.871094 57.367188 C 85.765625 56.839844 85.6875 56.308594 85.636719 55.769531 C 85.582031 55.234375 85.554688 54.699219 85.554688 54.160156 C 85.554688 53.621094 85.582031 53.082031 85.636719 52.546875 C 85.6875 52.007812 85.765625 51.476562 85.871094 50.949219 C 85.976562 50.421875 86.109375 49.898438 86.265625 49.382812 C 86.421875 48.867188 86.601562 48.359375 86.808594 47.863281 C 87.015625 47.363281 87.246094 46.878906 87.5 46.402344 C 87.753906 45.925781 88.03125 45.464844 88.332031 45.019531 C 88.628906 44.570312 88.953125 44.136719 89.292969 43.722656 C 89.636719 43.304688 89.996094 42.90625 90.378906 42.523438 C 90.761719 42.144531 91.160156 41.78125 91.574219 41.441406 C 91.992188 41.097656 92.425781 40.777344 92.875 40.476562 C 93.324219 40.179688 93.785156 39.902344 94.261719 39.648438 C 94.734375 39.394531 95.222656 39.164062 95.722656 38.957031 C 96.21875 38.75 96.726562 38.570312 97.242188 38.414062 C 97.757812 38.257812 98.28125 38.125 98.808594 38.023438 C 99.339844 37.917969 99.871094 37.835938 100.410156 37.785156 C 100.945312 37.730469 101.484375 37.707031 102.023438 37.707031 C 102.5625 37.707031 103.101562 37.730469 103.636719 37.785156 C 104.171875 37.835938 104.707031 37.917969 105.234375 38.023438 C 105.765625 38.125 106.285156 38.257812 106.804688 38.414062 C 107.320312 38.570312 107.828125 38.75 108.324219 38.957031 C 108.824219 39.164062 109.308594 39.394531 109.785156 39.648438 C 110.261719 39.902344 110.722656 40.179688 111.171875 40.476562 C 111.621094 40.777344 112.050781 41.097656 112.46875 41.441406 C 112.886719 41.78125 113.285156 42.144531 113.667969 42.523438 C 114.046875 42.90625 114.410156 43.304688 114.753906 43.722656 C 115.09375 44.136719 115.414062 44.570312 115.714844 45.019531 C 116.015625 45.464844 116.292969 45.925781 116.546875 46.402344 C 116.800781 46.878906 117.03125 47.363281 117.238281 47.863281 C 117.441406 48.359375 117.625 48.867188 117.78125 49.382812 C 117.9375 49.898438 118.070312 50.421875 118.171875 50.949219 C 118.277344 51.476562 118.359375 52.007812 118.410156 52.546875 C 118.464844 53.082031 118.492188 53.621094 118.488281 54.160156 Z M 118.488281 54.160156 " fill-opacity="1" fill-rule="nonzero"/><path fill="#d8d4d3" d="M 171.789062 99.917969 C 171.789062 98.898438 171.714844 97.898438 171.570312 96.921875 L 176.390625 95.234375 L 173.820312 87.902344 L 168.96875 89.601562 C 168.195312 88.292969 167.277344 87.082031 166.242188 85.984375 L 169.289062 81.8125 L 163.007812 77.230469 L 159.917969 81.460938 C 158.417969 80.777344 156.816406 80.269531 155.144531 79.964844 L 155.144531 74.671875 L 147.371094 74.671875 L 147.371094 80.054688 C 145.839844 80.371094 144.371094 80.859375 142.988281 81.496094 L 139.847656 77.058594 L 133.5 81.539062 L 136.683594 86.042969 C 135.746094 87.046875 134.902344 88.144531 134.179688 89.320312 L 128.992188 87.359375 L 126.246094 94.628906 L 131.464844 96.597656 C 131.285156 97.679688 131.191406 98.789062 131.191406 99.917969 C 131.191406 100.886719 131.261719 101.832031 131.390625 102.761719 L 126.125 104.605469 L 128.695312 111.9375 L 133.933594 110.105469 C 134.65625 111.351562 135.511719 112.511719 136.476562 113.570312 L 133.222656 118.027344 L 139.507812 122.605469 L 142.714844 118.214844 C 144.175781 118.914062 145.738281 119.449219 147.371094 119.785156 L 147.371094 125.167969 L 155.144531 125.167969 L 155.144531 119.875 C 156.714844 119.589844 158.21875 119.125 159.636719 118.5 L 162.664062 122.78125 L 169.015625 118.296875 L 166.027344 114.074219 C 167.039062 113.039062 167.941406 111.894531 168.710938 110.660156 L 173.523438 112.476562 L 176.269531 105.210938 L 171.492188 103.40625 C 171.6875 102.273438 171.789062 101.109375 171.789062 99.917969 Z M 151.257812 113.027344 C 144.011719 113.027344 138.136719 107.160156 138.136719 99.917969 C 138.136719 92.679688 144.011719 86.808594 151.257812 86.808594 C 158.503906 86.808594 164.378906 92.679688 164.378906 99.917969 C 164.378906 107.160156 158.503906 113.027344 151.257812 113.027344 Z M 151.257812 113.027344 " fill-opacity="1" fill-rule="nonzero"/><g clip-path="url(#712f0d93bf)"><path fill="#321019" d="M 155.144531 126.117188 L 147.371094 126.117188 C 146.84375 126.117188 146.417969 125.691406 146.417969 125.167969 L 146.417969 120.542969 C 145.257812 120.257812 144.121094 119.875 143.023438 119.398438 L 140.273438 123.167969 C 140.125 123.371094 139.902344 123.507812 139.652344 123.546875 C 139.402344 123.582031 139.148438 123.523438 138.945312 123.375 L 132.664062 118.796875 C 132.457031 118.648438 132.320312 118.421875 132.28125 118.175781 C 132.242188 117.925781 132.304688 117.671875 132.453125 117.46875 L 135.257812 113.625 C 134.625 112.875 134.042969 112.082031 133.519531 111.253906 L 129.007812 112.832031 C 128.515625 113.007812 127.96875 112.746094 127.796875 112.25 L 125.222656 104.917969 C 125.140625 104.679688 125.15625 104.417969 125.265625 104.191406 C 125.375 103.964844 125.570312 103.789062 125.808594 103.707031 L 130.351562 102.117188 C 130.277344 101.382812 130.238281 100.648438 130.238281 99.917969 C 130.238281 99.019531 130.296875 98.113281 130.410156 97.21875 L 125.90625 95.515625 C 125.414062 95.332031 125.167969 94.78125 125.351562 94.292969 L 128.101562 87.023438 C 128.191406 86.789062 128.367188 86.597656 128.597656 86.496094 C 128.828125 86.390625 129.089844 86.382812 129.328125 86.472656 L 133.792969 88.15625 C 134.304688 87.394531 134.863281 86.664062 135.46875 85.972656 L 132.722656 82.089844 C 132.574219 81.882812 132.515625 81.625 132.558594 81.378906 C 132.601562 81.128906 132.742188 80.910156 132.949219 80.761719 L 139.300781 76.28125 C 139.726562 75.976562 140.320312 76.078125 140.625 76.507812 L 143.316406 80.3125 C 144.324219 79.894531 145.363281 79.554688 146.414062 79.296875 L 146.414062 74.671875 C 146.414062 74.144531 146.84375 73.71875 147.367188 73.71875 L 155.140625 73.71875 C 155.667969 73.71875 156.09375 74.144531 156.09375 74.671875 L 156.09375 79.1875 C 157.292969 79.449219 158.464844 79.820312 159.597656 80.285156 L 162.238281 76.671875 C 162.386719 76.464844 162.609375 76.332031 162.859375 76.289062 C 163.109375 76.253906 163.363281 76.3125 163.566406 76.460938 L 169.851562 81.042969 C 170.054688 81.191406 170.191406 81.414062 170.230469 81.664062 C 170.269531 81.910156 170.207031 82.167969 170.058594 82.371094 L 167.464844 85.917969 C 168.164062 86.714844 168.804688 87.5625 169.375 88.449219 L 173.503906 87.003906 C 173.742188 86.921875 174.003906 86.933594 174.230469 87.042969 C 174.457031 87.152344 174.632812 87.347656 174.714844 87.585938 L 177.289062 94.917969 C 177.371094 95.15625 177.355469 95.417969 177.246094 95.644531 C 177.136719 95.871094 176.941406 96.046875 176.703125 96.128906 L 172.609375 97.5625 C 172.695312 98.34375 172.742188 99.132812 172.742188 99.917969 C 172.742188 100.875 172.675781 101.835938 172.546875 102.785156 L 176.605469 104.316406 C 177.097656 104.503906 177.34375 105.050781 177.160156 105.542969 L 174.410156 112.8125 C 174.320312 113.046875 174.140625 113.238281 173.910156 113.34375 C 173.683594 113.445312 173.421875 113.453125 173.183594 113.367188 L 169.089844 111.820312 C 168.53125 112.636719 167.917969 113.421875 167.25 114.15625 L 169.789062 117.746094 C 170.09375 118.175781 169.992188 118.769531 169.5625 119.070312 L 163.210938 123.554688 C 163.003906 123.699219 162.75 123.757812 162.5 123.714844 C 162.253906 123.671875 162.03125 123.535156 161.886719 123.328125 L 159.296875 119.667969 C 158.257812 120.082031 157.183594 120.410156 156.09375 120.648438 L 156.09375 125.164062 C 156.097656 125.691406 155.667969 126.117188 155.144531 126.117188 Z M 148.320312 124.21875 L 154.191406 124.21875 L 154.191406 119.875 C 154.191406 119.414062 154.523438 119.019531 154.972656 118.9375 C 156.441406 118.671875 157.882812 118.230469 159.253906 117.628906 C 159.667969 117.449219 160.152344 117.582031 160.414062 117.953125 L 162.890625 121.457031 L 167.6875 118.070312 L 165.25 114.621094 C 164.984375 114.25 165.027344 113.738281 165.347656 113.410156 C 166.3125 112.421875 167.171875 111.324219 167.902344 110.15625 C 168.144531 109.773438 168.625 109.613281 169.046875 109.773438 L 172.96875 111.253906 L 175.042969 105.761719 L 171.152344 104.296875 C 170.726562 104.132812 170.476562 103.691406 170.550781 103.242188 C 170.742188 102.148438 170.839844 101.03125 170.839844 99.917969 C 170.839844 98.964844 170.765625 98.003906 170.628906 97.0625 C 170.558594 96.609375 170.824219 96.175781 171.253906 96.023438 L 175.179688 94.648438 L 173.234375 89.113281 L 169.285156 90.496094 C 168.855469 90.648438 168.378906 90.472656 168.148438 90.085938 C 167.414062 88.84375 166.539062 87.683594 165.550781 86.636719 C 165.234375 86.304688 165.203125 85.796875 165.472656 85.425781 L 167.960938 82.019531 L 163.214844 78.558594 L 160.6875 82.023438 C 160.421875 82.386719 159.933594 82.515625 159.523438 82.328125 C 158.074219 81.664062 156.542969 81.183594 154.972656 80.898438 C 154.519531 80.816406 154.191406 80.421875 154.191406 79.964844 L 154.191406 75.621094 L 148.320312 75.621094 L 148.320312 80.054688 C 148.320312 80.507812 148.003906 80.894531 147.5625 80.988281 C 146.128906 81.28125 144.726562 81.742188 143.386719 82.359375 C 142.96875 82.550781 142.476562 82.417969 142.210938 82.046875 L 139.621094 78.382812 L 134.824219 81.769531 L 137.460938 85.496094 C 137.722656 85.863281 137.6875 86.367188 137.378906 86.695312 C 136.476562 87.652344 135.675781 88.703125 134.992188 89.816406 C 134.753906 90.207031 134.273438 90.371094 133.84375 90.207031 L 129.546875 88.585938 L 127.46875 94.074219 L 131.796875 95.710938 C 132.222656 95.871094 132.472656 96.304688 132.402344 96.753906 C 132.230469 97.800781 132.140625 98.863281 132.140625 99.917969 C 132.140625 100.816406 132.203125 101.730469 132.332031 102.628906 C 132.394531 103.078125 132.128906 103.507812 131.703125 103.660156 L 127.335938 105.1875 L 129.277344 110.722656 L 133.617188 109.207031 C 134.046875 109.054688 134.523438 109.230469 134.753906 109.625 C 135.441406 110.804688 136.257812 111.917969 137.179688 112.929688 C 137.484375 113.265625 137.511719 113.765625 137.246094 114.128906 L 134.554688 117.820312 L 139.296875 121.277344 L 141.945312 117.652344 C 142.214844 117.28125 142.710938 117.15625 143.125 117.355469 C 144.535156 118.03125 146.027344 118.535156 147.5625 118.851562 C 148.003906 118.941406 148.320312 119.332031 148.320312 119.78125 Z M 151.257812 113.980469 C 143.496094 113.980469 137.183594 107.671875 137.183594 99.917969 C 137.183594 92.167969 143.496094 85.859375 151.257812 85.859375 C 159.015625 85.859375 165.328125 92.167969 165.328125 99.917969 C 165.328125 107.671875 159.015625 113.980469 151.257812 113.980469 Z M 151.257812 87.761719 C 144.546875 87.761719 139.085938 93.214844 139.085938 99.917969 C 139.085938 106.621094 144.546875 112.078125 151.257812 112.078125 C 157.964844 112.078125 163.425781 106.621094 163.425781 99.917969 C 163.425781 93.214844 157.964844 87.761719 151.257812 87.761719 Z M 151.257812 87.761719 " fill-opacity="1" fill-rule="nonzero"/></g><g clip-path="url(#965b908a8b)"><path fill="#f2c70f" d="M 133.414062 54.160156 C 133.414062 52.601562 133.296875 51.070312 133.074219 49.578125 L 140.445312 46.996094 L 136.511719 35.789062 L 129.097656 38.382812 C 127.914062 36.386719 126.515625 34.535156 124.929688 32.859375 L 129.589844 26.476562 L 119.988281 19.476562 L 115.265625 25.945312 C 112.96875 24.898438 110.523438 24.117188 107.964844 23.65625 L 107.964844 15.5625 L 96.078125 15.5625 L 96.078125 23.792969 C 93.742188 24.277344 91.5 25.023438 89.382812 25.996094 L 84.585938 19.210938 L 74.875 26.0625 L 79.746094 32.949219 C 78.308594 34.480469 77.023438 36.15625 75.917969 37.957031 L 67.984375 34.960938 L 63.785156 46.070312 L 71.761719 49.082031 C 71.488281 50.734375 71.347656 52.429688 71.347656 54.160156 C 71.347656 55.632812 71.453125 57.085938 71.652344 58.503906 L 63.601562 61.324219 L 67.53125 72.53125 L 75.535156 69.726562 C 76.648438 71.632812 77.953125 73.410156 79.429688 75.027344 L 74.453125 81.84375 L 84.058594 88.839844 L 88.960938 82.125 C 91.199219 83.199219 93.585938 84.011719 96.078125 84.523438 L 96.078125 92.757812 L 107.964844 92.757812 L 107.964844 84.664062 C 110.363281 84.226562 112.664062 83.515625 114.832031 82.5625 L 119.460938 89.109375 L 129.167969 82.253906 L 124.601562 75.796875 C 126.148438 74.210938 127.523438 72.464844 128.703125 70.578125 L 136.058594 73.355469 L 140.261719 62.246094 L 132.953125 59.488281 C 133.253906 57.757812 133.414062 55.976562 133.414062 54.160156 Z M 133.414062 54.160156 " fill-opacity="1" fill-rule="nonzero"/></g><path fill="#ffffff" d="M 118.488281 54.160156 C 118.492188 54.699219 118.464844 55.234375 118.410156 55.769531 C 118.359375 56.308594 118.277344 56.839844 118.171875 57.367188 C 118.070312 57.898438 117.9375 58.417969 117.78125 58.933594 C 117.625 59.449219 117.441406 59.957031 117.238281 60.453125 C 117.03125 60.953125 116.800781 61.4375 116.546875 61.914062 C 116.292969 62.390625 116.015625 62.851562 115.714844 63.300781 C 115.414062 63.746094 115.09375 64.179688 114.753906 64.597656 C 114.410156 65.011719 114.046875 65.410156 113.667969 65.792969 C 113.285156 66.171875 112.886719 66.535156 112.46875 66.875 C 112.050781 67.21875 111.621094 67.539062 111.171875 67.839844 C 110.722656 68.136719 110.261719 68.414062 109.785156 68.667969 C 109.308594 68.921875 108.824219 69.152344 108.324219 69.359375 C 107.828125 69.566406 107.320312 69.746094 106.804688 69.902344 C 106.285156 70.058594 105.765625 70.191406 105.234375 70.296875 C 104.707031 70.402344 104.171875 70.480469 103.636719 70.53125 C 103.101562 70.585938 102.5625 70.613281 102.023438 70.613281 C 101.484375 70.613281 100.945312 70.585938 100.410156 70.53125 C 99.871094 70.480469 99.339844 70.402344 98.808594 70.296875 C 98.28125 70.191406 97.757812 70.058594 97.242188 69.902344 C 96.726562 69.746094 96.21875 69.566406 95.722656 69.359375 C 95.222656 69.152344 94.734375 68.921875 94.261719 68.667969 C 93.785156 68.414062 93.324219 68.136719 92.875 67.839844 C 92.425781 67.539062 91.992188 67.21875 91.574219 66.875 C 91.160156 66.535156 90.761719 66.171875 90.378906 65.792969 C 89.996094 65.410156 89.636719 65.011719 89.292969 64.597656 C 88.953125 64.179688 88.628906 63.746094 88.332031 63.300781 C 88.03125 62.851562 87.753906 62.390625 87.5 61.914062 C 87.246094 61.4375 87.015625 60.953125 86.808594 60.453125 C 86.601562 59.957031 86.421875 59.449219 86.265625 58.933594 C 86.109375 58.417969 85.976562 57.898438 85.871094 57.367188 C 85.765625 56.839844 85.6875 56.308594 85.636719 55.769531 C 85.582031 55.234375 85.554688 54.699219 85.554688 54.160156 C 85.554688 53.621094 85.582031 53.082031 85.636719 52.546875 C 85.6875 52.007812 85.765625 51.476562 85.871094 50.949219 C 85.976562 50.421875 86.109375 49.898438 86.265625 49.382812 C 86.421875 48.867188 86.601562 48.359375 86.808594 47.863281 C 87.015625 47.363281 87.246094 46.878906 87.5 46.402344 C 87.753906 45.925781 88.03125 45.464844 88.332031 45.019531 C 88.628906 44.570312 88.953125 44.136719 89.292969 43.722656 C 89.636719 43.304688 89.996094 42.90625 90.378906 42.523438 C 90.761719 42.144531 91.160156 41.78125 91.574219 41.441406 C 91.992188 41.097656 92.425781 40.777344 92.875 40.476562 C 93.324219 40.179688 93.785156 39.902344 94.261719 39.648438 C 94.734375 39.394531 95.222656 39.164062 95.722656 38.957031 C 96.21875 38.75 96.726562 38.570312 97.242188 38.414062 C 97.757812 38.257812 98.28125 38.125 98.808594 38.023438 C 99.339844 37.917969 99.871094 37.835938 100.410156 37.785156 C 100.945312 37.730469 101.484375 37.707031 102.023438 37.707031 C 102.5625 37.707031 103.101562 37.730469 103.636719 37.785156 C 104.171875 37.835938 104.707031 37.917969 105.234375 38.023438 C 105.765625 38.125 106.285156 38.257812 106.804688 38.414062 C 107.320312 38.570312 107.828125 38.75 108.324219 38.957031 C 108.824219 39.164062 109.308594 39.394531 109.785156 39.648438 C 110.261719 39.902344 110.722656 40.179688 111.171875 40.476562 C 111.621094 40.777344 112.050781 41.097656 112.46875 41.441406 C 112.886719 41.78125 113.285156 42.144531 113.667969 42.523438 C 114.046875 42.90625 114.410156 43.304688 114.753906 43.722656 C 115.09375 44.136719 115.414062 44.570312 115.714844 45.019531 C 116.015625 45.464844 116.292969 45.925781 116.546875 46.402344 C 116.800781 46.878906 117.03125 47.363281 117.238281 47.863281 C 117.441406 48.359375 117.625 48.867188 117.78125 49.382812 C 117.9375 49.898438 118.070312 50.421875 118.171875 50.949219 C 118.277344 51.476562 118.359375 52.007812 118.410156 52.546875 C 118.464844 53.082031 118.492188 53.621094 118.488281 54.160156 Z M 118.488281 54.160156 " fill-opacity="1" fill-rule="nonzero"/><path fill="#ffffff" d="M 80.160156 57.558594 C 79.730469 57.558594 79.363281 57.238281 79.3125 56.804688 C 79.210938 55.933594 79.160156 55.042969 79.160156 54.160156 C 79.160156 45.808594 83.71875 38.125 91.058594 34.113281 C 91.472656 33.886719 91.988281 34.035156 92.214844 34.449219 C 92.441406 34.863281 92.289062 35.378906 91.878906 35.605469 C 85.085938 39.320312 80.867188 46.429688 80.867188 54.160156 C 80.867188 54.976562 80.914062 55.800781 81.007812 56.609375 C 81.0625 57.074219 80.726562 57.5 80.257812 57.550781 C 80.222656 57.554688 80.191406 57.558594 80.160156 57.558594 Z M 80.160156 57.558594 " fill-opacity="1" fill-rule="nonzero"/><path fill="#d8d4d3" d="M 171.789062 99.917969 C 171.789062 98.898438 171.714844 97.898438 171.570312 96.921875 L 176.390625 95.234375 L 173.820312 87.902344 L 168.96875 89.601562 C 168.195312 88.292969 167.277344 87.082031 166.242188 85.984375 L 169.289062 81.8125 L 163.007812 77.230469 L 159.917969 81.460938 C 158.417969 80.777344 156.816406 80.269531 155.144531 79.964844 L 155.144531 74.671875 L 147.371094 74.671875 L 147.371094 80.054688 C 145.839844 80.371094 144.371094 80.859375 142.988281 81.496094 L 139.847656 77.058594 L 133.5 81.539062 L 136.683594 86.042969 C 135.746094 87.046875 134.902344 88.144531 134.179688 89.320312 L 128.992188 87.359375 L 126.246094 94.628906 L 131.464844 96.597656 C 131.285156 97.679688 131.191406 98.789062 131.191406 99.917969 C 131.191406 100.886719 131.261719 101.832031 131.390625 102.761719 L 126.125 104.605469 L 128.695312 111.9375 L 133.933594 110.105469 C 134.65625 111.351562 135.511719 112.511719 136.476562 113.570312 L 133.222656 118.027344 L 139.507812 122.605469 L 142.714844 118.214844 C 144.175781 118.914062 145.738281 119.449219 147.371094 119.785156 L 147.371094 125.167969 L 155.144531 125.167969 L 155.144531 119.875 C 156.714844 119.589844 158.21875 119.125 159.636719 118.5 L 162.664062 122.78125 L 169.015625 118.296875 L 166.027344 114.074219 C 167.039062 113.039062 167.941406 111.894531 168.710938 110.660156 L 173.523438 112.476562 L 176.269531 105.210938 L 171.492188 103.40625 C 171.6875 102.273438 171.789062 101.109375 171.789062 99.917969 Z M 151.257812 113.027344 C 144.011719 113.027344 138.136719 107.160156 138.136719 99.917969 C 138.136719 92.679688 144.011719 86.808594 151.257812 86.808594 C 158.503906 86.808594 164.378906 92.679688 164.378906 99.917969 C 164.378906 107.160156 158.503906 113.027344 151.257812 113.027344 Z M 151.257812 113.027344 " fill-opacity="1" fill-rule="nonzero"/><g clip-path="url(#bcc350223a)"><path fill="#321019" d="M 155.144531 126.117188 L 147.371094 126.117188 C 146.84375 126.117188 146.417969 125.691406 146.417969 125.167969 L 146.417969 120.542969 C 145.257812 120.257812 144.121094 119.875 143.023438 119.398438 L 140.273438 123.167969 C 140.125 123.371094 139.902344 123.507812 139.652344 123.546875 C 139.402344 123.582031 139.148438 123.523438 138.945312 123.375 L 132.664062 118.796875 C 132.457031 118.648438 132.320312 118.421875 132.28125 118.175781 C 132.242188 117.925781 132.304688 117.671875 132.453125 117.46875 L 135.257812 113.625 C 134.625 112.875 134.042969 112.082031 133.519531 111.253906 L 129.007812 112.832031 C 128.515625 113.007812 127.96875 112.746094 127.796875 112.25 L 125.222656 104.917969 C 125.140625 104.679688 125.15625 104.417969 125.265625 104.191406 C 125.375 103.964844 125.570312 103.789062 125.808594 103.707031 L 130.351562 102.117188 C 130.277344 101.382812 130.238281 100.648438 130.238281 99.917969 C 130.238281 99.019531 130.296875 98.113281 130.410156 97.21875 L 125.90625 95.515625 C 125.414062 95.332031 125.167969 94.78125 125.351562 94.292969 L 128.101562 87.023438 C 128.191406 86.789062 128.367188 86.597656 128.597656 86.496094 C 128.828125 86.390625 129.089844 86.382812 129.328125 86.472656 L 133.792969 88.15625 C 134.304688 87.394531 134.863281 86.664062 135.46875 85.972656 L 132.722656 82.089844 C 132.574219 81.882812 132.515625 81.625 132.558594 81.378906 C 132.601562 81.128906 132.742188 80.910156 132.949219 80.761719 L 139.300781 76.28125 C 139.726562 75.976562 140.320312 76.078125 140.625 76.507812 L 143.316406 80.3125 C 144.324219 79.894531 145.363281 79.554688 146.414062 79.296875 L 146.414062 74.671875 C 146.414062 74.144531 146.84375 73.71875 147.367188 73.71875 L 155.140625 73.71875 C 155.667969 73.71875 156.09375 74.144531 156.09375 74.671875 L 156.09375 79.1875 C 157.292969 79.449219 158.464844 79.820312 159.597656 80.285156 L 162.238281 76.671875 C 162.386719 76.464844 162.609375 76.332031 162.859375 76.289062 C 163.109375 76.253906 163.363281 76.3125 163.566406 76.460938 L 169.851562 81.042969 C 170.054688 81.191406 170.191406 81.414062 170.230469 81.664062 C 170.269531 81.910156 170.207031 82.167969 170.058594 82.371094 L 167.464844 85.917969 C 168.164062 86.714844 168.804688 87.5625 169.375 88.449219 L 173.503906 87.003906 C 173.742188 86.921875 174.003906 86.933594 174.230469 87.042969 C 174.457031 87.152344 174.632812 87.347656 174.714844 87.585938 L 177.289062 94.917969 C 177.371094 95.15625 177.355469 95.417969 177.246094 95.644531 C 177.136719 95.871094 176.941406 96.046875 176.703125 96.128906 L 172.609375 97.5625 C 172.695312 98.34375 172.742188 99.132812 172.742188 99.917969 C 172.742188 100.875 172.675781 101.835938 172.546875 102.785156 L 176.605469 104.316406 C 177.097656 104.503906 177.34375 105.050781 177.160156 105.542969 L 174.410156 112.8125 C 174.320312 113.046875 174.140625 113.238281 173.910156 113.34375 C 173.683594 113.445312 173.421875 113.453125 173.183594 113.367188 L 169.089844 111.820312 C 168.53125 112.636719 167.917969 113.421875 167.25 114.15625 L 169.789062 117.746094 C 170.09375 118.175781 169.992188 118.769531 169.5625 119.070312 L 163.210938 123.554688 C 163.003906 123.699219 162.75 123.757812 162.5 123.714844 C 162.253906 123.671875 162.03125 123.535156 161.886719 123.328125 L 159.296875 119.667969 C 158.257812 120.082031 157.183594 120.410156 156.09375 120.648438 L 156.09375 125.164062 C 156.097656 125.691406 155.667969 126.117188 155.144531 126.117188 Z M 148.320312 124.21875 L 154.191406 124.21875 L 154.191406 119.875 C 154.191406 119.414062 154.523438 119.019531 154.972656 118.9375 C 156.441406 118.671875 157.882812 118.230469 159.253906 117.628906 C 159.667969 117.449219 160.152344 117.582031 160.414062 117.953125 L 162.890625 121.457031 L 167.6875 118.070312 L 165.25 114.621094 C 164.984375 114.25 165.027344 113.738281 165.347656 113.410156 C 166.3125 112.421875 167.171875 111.324219 167.902344 110.15625 C 168.144531 109.773438 168.625 109.613281 169.046875 109.773438 L 172.96875 111.253906 L 175.042969 105.761719 L 171.152344 104.296875 C 170.726562 104.132812 170.476562 103.691406 170.550781 103.242188 C 170.742188 102.148438 170.839844 101.03125 170.839844 99.917969 C 170.839844 98.964844 170.765625 98.003906 170.628906 97.0625 C 170.558594 96.609375 170.824219 96.175781 171.253906 96.023438 L 175.179688 94.648438 L 173.234375 89.113281 L 169.285156 90.496094 C 168.855469 90.648438 168.378906 90.472656 168.148438 90.085938 C 167.414062 88.84375 166.539062 87.683594 165.550781 86.636719 C 165.234375 86.304688 165.203125 85.796875 165.472656 85.425781 L 167.960938 82.019531 L 163.214844 78.558594 L 160.6875 82.023438 C 160.421875 82.386719 159.933594 82.515625 159.523438 82.328125 C 158.074219 81.664062 156.542969 81.183594 154.972656 80.898438 C 154.519531 80.816406 154.191406 80.421875 154.191406 79.964844 L 154.191406 75.621094 L 148.320312 75.621094 L 148.320312 80.054688 C 148.320312 80.507812 148.003906 80.894531 147.5625 80.988281 C 146.128906 81.28125 144.726562 81.742188 143.386719 82.359375 C 142.96875 82.550781 142.476562 82.417969 142.210938 82.046875 L 139.621094 78.382812 L 134.824219 81.769531 L 137.460938 85.496094 C 137.722656 85.863281 137.6875 86.367188 137.378906 86.695312 C 136.476562 87.652344 135.675781 88.703125 134.992188 89.816406 C 134.753906 90.207031 134.273438 90.371094 133.84375 90.207031 L 129.546875 88.585938 L 127.46875 94.074219 L 131.796875 95.710938 C 132.222656 95.871094 132.472656 96.304688 132.402344 96.753906 C 132.230469 97.800781 132.140625 98.863281 132.140625 99.917969 C 132.140625 100.816406 132.203125 101.730469 132.332031 102.628906 C 132.394531 103.078125 132.128906 103.507812 131.703125 103.660156 L 127.335938 105.1875 L 129.277344 110.722656 L 133.617188 109.207031 C 134.046875 109.054688 134.523438 109.230469 134.753906 109.625 C 135.441406 110.804688 136.257812 111.917969 137.179688 112.929688 C 137.484375 113.265625 137.511719 113.765625 137.246094 114.128906 L 134.554688 117.820312 L 139.296875 121.277344 L 141.945312 117.652344 C 142.214844 117.28125 142.710938 117.15625 143.125 117.355469 C 144.535156 118.03125 146.027344 118.535156 147.5625 118.851562 C 148.003906 118.941406 148.320312 119.332031 148.320312 119.78125 Z M 151.257812 113.980469 C 143.496094 113.980469 137.183594 107.671875 137.183594 99.917969 C 137.183594 92.167969 143.496094 85.859375 151.257812 85.859375 C 159.015625 85.859375 165.328125 92.167969 165.328125 99.917969 C 165.328125 107.671875 159.015625 113.980469 151.257812 113.980469 Z M 151.257812 87.761719 C 144.546875 87.761719 139.085938 93.214844 139.085938 99.917969 C 139.085938 106.621094 144.546875 112.078125 151.257812 112.078125 C 157.964844 112.078125 163.425781 106.621094 163.425781 99.917969 C 163.425781 93.214844 157.964844 87.761719 151.257812 87.761719 Z M 151.257812 87.761719 " fill-opacity="1" fill-rule="nonzero"/></g><path fill="#ffffff" d="M 146.019531 83.84375 C 145.691406 83.84375 145.378906 83.65625 145.238281 83.335938 C 145.042969 82.902344 145.238281 82.394531 145.671875 82.203125 C 146.726562 81.734375 147.804688 81.363281 148.898438 81.09375 L 148.898438 76.917969 C 148.898438 76.445312 149.28125 76.0625 149.757812 76.0625 C 150.230469 76.0625 150.613281 76.445312 150.613281 76.917969 L 150.613281 81.78125 C 150.613281 82.1875 150.328125 82.539062 149.929688 82.621094 C 148.726562 82.867188 147.53125 83.253906 146.371094 83.769531 C 146.257812 83.820312 146.136719 83.84375 146.019531 83.84375 Z M 146.019531 83.84375 " fill-opacity="1" fill-rule="nonzero"/></svg>