<svg xmlns="http://www.w3.org/2000/svg" xmlns:xlink="http://www.w3.org/1999/xlink" width="321" zoomAndPan="magnify" viewBox="0 0 240.75 141.750002" height="188" preserveAspectRatio="xMidYMid meet" version="1.0"><defs><clipPath id="0b23fd9e7c"><path d="M 0.0859375 0 L 146 0 L 146 141.5 L 0.0859375 141.5 Z M 0.0859375 0 " clip-rule="nonzero"/></clipPath><clipPath id="9cb0a14160"><path d="M 145.527344 0 L 240.414062 0 L 240.414062 141.476562 L 145.527344 141.476562 Z M 145.527344 0 " clip-rule="nonzero"/></clipPath></defs><g clip-path="url(#0b23fd9e7c)"><path fill="#383838" d="M 76.3125 2.054688 C 76.3125 0.925781 75.386719 0 74.253906 0 L 40.25 0 C 39.121094 0 38.191406 0.925781 38.191406 2.054688 C 38.191406 3.183594 39.121094 4.113281 40.25 4.113281 L 74.296875 4.113281 C 75.425781 4.070312 76.3125 3.183594 76.3125 2.054688 Z M 122.878906 2.054688 C 122.878906 0.925781 121.949219 0 120.816406 0 L 100.910156 0 C 99.777344 0 98.847656 0.925781 98.847656 2.054688 C 98.847656 3.183594 99.777344 4.113281 100.910156 4.113281 L 120.816406 4.113281 C 121.949219 4.113281 122.878906 3.183594 122.878906 2.054688 Z M 96.222656 2.054688 C 96.222656 0.925781 95.292969 0 94.164062 0 L 80.394531 0 C 79.261719 0 78.332031 0.925781 78.332031 2.054688 C 78.332031 3.183594 79.261719 4.113281 80.394531 4.113281 L 94.164062 4.113281 C 95.292969 4.113281 96.222656 3.183594 96.222656 2.054688 Z M 36.375 2.054688 C 36.375 0.925781 35.445312 0 34.3125 0 L 29.710938 0 C 28.578125 0 27.652344 0.925781 27.652344 2.054688 C 27.652344 3.183594 28.578125 4.113281 29.710938 4.113281 L 34.273438 4.113281 C 35.40625 4.113281 36.375 3.183594 36.375 2.054688 Z M 24.300781 2.054688 C 24.300781 0.925781 23.371094 0 22.238281 0 L 2.371094 0 C 1.238281 0 0.308594 0.925781 0.308594 2.054688 C 0.308594 3.183594 1.238281 4.113281 2.371094 4.113281 L 22.238281 4.113281 C 23.371094 4.113281 24.300781 3.183594 24.300781 2.054688 Z M 79.789062 29.46875 C 79.789062 28.339844 78.859375 27.414062 77.726562 27.414062 L 54.789062 27.414062 C 53.660156 27.414062 52.730469 28.339844 52.730469 29.46875 C 52.730469 30.597656 53.660156 31.523438 54.789062 31.523438 L 77.726562 31.523438 C 78.859375 31.523438 79.789062 30.597656 79.789062 29.46875 Z M 45.300781 29.46875 C 45.300781 28.339844 44.371094 27.414062 43.238281 27.414062 L 29.46875 27.414062 C 28.335938 27.414062 27.410156 28.339844 27.410156 29.46875 C 27.410156 30.597656 28.335938 31.523438 29.46875 31.523438 L 43.238281 31.523438 C 44.371094 31.523438 45.300781 30.597656 45.300781 29.46875 Z M 17.070312 29.46875 C 17.070312 28.339844 16.140625 27.414062 15.011719 27.414062 L 10.445312 27.414062 C 9.316406 27.414062 8.386719 28.339844 8.386719 29.46875 C 8.386719 30.597656 9.316406 31.523438 10.445312 31.523438 L 15.011719 31.523438 C 16.140625 31.523438 17.070312 30.636719 17.070312 29.46875 Z M 4.550781 29.46875 C 4.550781 28.339844 3.621094 27.414062 2.492188 27.414062 C 1.359375 27.414062 0.433594 28.339844 0.433594 29.46875 C 0.433594 30.597656 1.359375 31.523438 2.492188 31.523438 C 3.621094 31.523438 4.550781 30.597656 4.550781 29.46875 Z M 99.574219 29.46875 C 99.574219 28.339844 98.648438 27.414062 97.515625 27.414062 L 83.746094 27.414062 C 82.613281 27.414062 81.683594 28.339844 81.683594 29.46875 C 81.683594 30.597656 82.613281 31.523438 83.746094 31.523438 L 97.515625 31.523438 C 98.648438 31.523438 99.574219 30.597656 99.574219 29.46875 Z M 110.074219 29.46875 C 110.074219 28.339844 109.148438 27.414062 108.015625 27.414062 L 103.453125 27.414062 C 102.320312 27.414062 101.394531 28.339844 101.394531 29.46875 C 101.394531 30.597656 102.320312 31.523438 103.453125 31.523438 L 108.015625 31.523438 C 109.148438 31.523438 110.074219 30.597656 110.074219 29.46875 Z M 78.292969 65.992188 C 78.292969 64.863281 77.363281 63.9375 76.234375 63.9375 L 62.460938 63.9375 C 61.332031 63.9375 60.402344 64.863281 60.402344 65.992188 C 60.402344 67.121094 61.332031 68.050781 62.460938 68.050781 L 76.234375 68.050781 C 77.363281 68.050781 78.292969 67.121094 78.292969 65.992188 Z M 48.691406 65.992188 C 48.691406 64.863281 47.761719 63.9375 46.632812 63.9375 L 32.859375 63.9375 C 31.730469 63.9375 30.800781 64.863281 30.800781 65.992188 C 30.800781 67.121094 31.730469 68.050781 32.859375 68.050781 L 46.632812 68.050781 C 47.761719 68.050781 48.691406 67.121094 48.691406 65.992188 Z M 58.179688 65.992188 C 58.179688 64.863281 57.253906 63.9375 56.121094 63.9375 L 53.050781 63.9375 C 51.921875 63.9375 50.992188 64.863281 50.992188 65.992188 C 50.992188 67.121094 51.921875 68.050781 53.050781 68.050781 L 56.121094 68.050781 C 57.253906 68.050781 58.179688 67.121094 58.179688 65.992188 Z M 7.015625 65.992188 C 7.015625 64.863281 6.085938 63.9375 4.953125 63.9375 C 3.824219 63.9375 2.894531 64.863281 2.894531 65.992188 C 2.894531 67.121094 3.824219 68.050781 4.953125 68.050781 C 6.085938 68.050781 7.015625 67.121094 7.015625 65.992188 Z M 99.574219 65.992188 C 99.574219 64.863281 98.648438 63.9375 97.515625 63.9375 L 83.746094 63.9375 C 82.613281 63.9375 81.683594 64.863281 81.683594 65.992188 C 81.683594 67.121094 82.613281 68.050781 83.746094 68.050781 L 97.515625 68.050781 C 98.648438 68.050781 99.574219 67.121094 99.574219 65.992188 Z M 110.074219 65.992188 C 110.074219 64.863281 109.148438 63.9375 108.015625 63.9375 L 103.453125 63.9375 C 102.320312 63.9375 101.394531 64.863281 101.394531 65.992188 C 101.394531 67.121094 102.320312 68.050781 103.453125 68.050781 L 108.015625 68.050781 C 109.148438 68.050781 110.074219 67.121094 110.074219 65.992188 Z M 25.953125 65.992188 C 25.953125 64.863281 25.027344 63.9375 23.894531 63.9375 L 19.332031 63.9375 C 18.199219 63.9375 17.273438 64.863281 17.273438 65.992188 C 17.273438 67.121094 18.199219 68.050781 19.332031 68.050781 L 23.894531 68.050781 C 25.027344 68.050781 25.953125 67.121094 25.953125 65.992188 Z M 46.46875 84.335938 C 46.46875 83.207031 45.542969 82.28125 44.410156 82.28125 L 18.402344 82.28125 C 17.273438 82.28125 16.34375 83.207031 16.34375 84.335938 C 16.34375 85.464844 17.273438 86.390625 18.402344 86.390625 L 44.410156 86.390625 C 45.542969 86.351562 46.46875 85.464844 46.46875 84.335938 Z M 79.789062 84.335938 C 79.789062 83.207031 78.859375 82.28125 77.726562 82.28125 L 60.886719 82.28125 C 59.757812 82.28125 58.828125 83.207031 58.828125 84.335938 C 58.828125 85.464844 59.757812 86.390625 60.886719 86.390625 L 77.726562 86.390625 C 78.859375 86.351562 79.789062 85.464844 79.789062 84.335938 Z M 5.882812 84.335938 C 5.882812 83.207031 4.953125 82.28125 3.824219 82.28125 C 2.691406 82.28125 1.765625 83.207031 1.765625 84.335938 C 1.765625 85.464844 2.691406 86.390625 3.824219 86.390625 C 4.953125 86.390625 5.882812 85.464844 5.882812 84.335938 Z M 97.554688 84.335938 C 97.554688 83.207031 96.628906 82.28125 95.496094 82.28125 L 83.261719 82.28125 C 82.128906 82.28125 81.199219 83.207031 81.199219 84.335938 C 81.199219 85.464844 82.128906 86.390625 83.261719 86.390625 L 95.496094 86.390625 C 96.628906 86.351562 97.554688 85.464844 97.554688 84.335938 Z M 110.359375 84.335938 C 110.359375 83.207031 109.429688 82.28125 108.296875 82.28125 L 103.734375 82.28125 C 102.605469 82.28125 101.675781 83.207031 101.675781 84.335938 C 101.675781 85.464844 102.605469 86.390625 103.734375 86.390625 L 108.296875 86.390625 C 109.429688 86.351562 110.359375 85.464844 110.359375 84.335938 Z M 67.269531 93.445312 C 67.269531 92.316406 66.339844 91.390625 65.207031 91.390625 L 54.507812 91.390625 C 53.375 91.390625 52.445312 92.316406 52.445312 93.445312 C 52.445312 94.574219 53.375 95.503906 54.507812 95.503906 L 65.207031 95.503906 C 66.339844 95.503906 67.269531 94.574219 67.269531 93.445312 Z M 47.761719 93.445312 C 47.761719 92.316406 46.832031 91.390625 45.703125 91.390625 L 31.929688 91.390625 C 30.800781 91.390625 29.871094 92.316406 29.871094 93.445312 C 29.871094 94.574219 30.800781 95.503906 31.929688 95.503906 L 45.703125 95.503906 C 46.832031 95.503906 47.761719 94.574219 47.761719 93.445312 Z M 17.070312 93.445312 C 17.070312 92.316406 16.140625 91.390625 15.011719 91.390625 L 10.445312 91.390625 C 9.316406 91.390625 8.386719 92.316406 8.386719 93.445312 C 8.386719 94.574219 9.316406 95.503906 10.445312 95.503906 L 15.011719 95.503906 C 16.140625 95.503906 17.070312 94.617188 17.070312 93.445312 Z M 25.1875 93.445312 C 25.1875 92.316406 24.257812 91.390625 23.128906 91.390625 L 20.058594 91.390625 C 18.929688 91.390625 18 92.316406 18 93.445312 C 18 94.574219 18.929688 95.503906 20.058594 95.503906 L 23.128906 95.503906 C 24.257812 95.503906 25.1875 94.574219 25.1875 93.445312 Z M 93.800781 93.488281 C 93.800781 92.359375 92.871094 91.429688 91.742188 91.429688 L 77.96875 91.429688 C 76.839844 91.429688 75.910156 92.359375 75.910156 93.488281 C 75.910156 94.617188 76.839844 95.542969 77.96875 95.542969 L 91.742188 95.542969 C 92.871094 95.542969 93.800781 94.617188 93.800781 93.488281 Z M 119.769531 93.445312 C 119.769531 92.316406 118.839844 91.390625 117.707031 91.390625 L 107.007812 91.390625 C 105.875 91.390625 104.945312 92.316406 104.945312 93.445312 C 104.945312 94.574219 105.875 95.503906 107.007812 95.503906 L 117.707031 95.503906 C 118.839844 95.503906 119.769531 94.574219 119.769531 93.445312 Z M 74.859375 11.207031 C 74.859375 10.078125 73.929688 9.152344 72.800781 9.152344 L 52.929688 9.152344 C 51.800781 9.152344 50.871094 10.078125 50.871094 11.207031 C 50.871094 12.335938 51.800781 13.261719 52.929688 13.261719 L 72.839844 13.261719 C 73.972656 13.222656 74.859375 12.335938 74.859375 11.207031 Z M 90.851562 11.207031 C 90.851562 10.078125 89.921875 9.152344 88.792969 9.152344 L 84.230469 9.152344 C 83.097656 9.152344 82.167969 10.078125 82.167969 11.207031 C 82.167969 12.335938 83.097656 13.261719 84.230469 13.261719 L 88.792969 13.261719 C 89.921875 13.261719 90.851562 12.335938 90.851562 11.207031 Z M 38.191406 11.207031 C 38.191406 10.078125 37.261719 9.152344 36.132812 9.152344 L 31.566406 9.152344 C 30.4375 9.152344 29.507812 10.078125 29.507812 11.207031 C 29.507812 12.335938 30.4375 13.261719 31.566406 13.261719 L 36.132812 13.261719 C 37.261719 13.261719 38.191406 12.335938 38.191406 11.207031 Z M 46.589844 11.207031 C 46.589844 10.078125 45.664062 9.152344 44.53125 9.152344 L 41.460938 9.152344 C 40.332031 9.152344 39.402344 10.078125 39.402344 11.207031 C 39.402344 12.335938 40.332031 13.261719 41.460938 13.261719 L 44.53125 13.261719 C 45.664062 13.261719 46.589844 12.335938 46.589844 11.207031 Z M 110.316406 11.207031 C 110.316406 10.078125 109.390625 9.152344 108.257812 9.152344 L 94.488281 9.152344 C 93.355469 9.152344 92.425781 10.078125 92.425781 11.207031 C 92.425781 12.335938 93.355469 13.261719 94.488281 13.261719 L 108.257812 13.261719 C 109.390625 13.261719 110.316406 12.335938 110.316406 11.207031 Z M 21.714844 11.207031 C 21.714844 10.078125 20.785156 9.152344 19.65625 9.152344 L 2.8125 9.152344 C 1.683594 9.152344 0.753906 10.078125 0.753906 11.207031 C 0.753906 12.335938 1.683594 13.261719 2.8125 13.261719 L 19.65625 13.261719 C 20.785156 13.261719 21.714844 12.335938 21.714844 11.207031 Z M 59.070312 47.730469 C 59.070312 46.601562 58.140625 45.675781 57.011719 45.675781 L 52.445312 45.675781 C 51.316406 45.675781 50.386719 46.601562 50.386719 47.730469 C 50.386719 48.859375 51.316406 49.789062 52.445312 49.789062 L 57.011719 49.789062 C 58.140625 49.789062 59.070312 48.859375 59.070312 47.730469 Z M 35.082031 47.730469 C 35.082031 46.601562 34.152344 45.675781 33.023438 45.675781 L 19.25 45.675781 C 18.121094 45.675781 17.191406 46.601562 17.191406 47.730469 C 17.191406 48.859375 18.121094 49.789062 19.25 49.789062 L 33.023438 49.789062 C 34.152344 49.789062 35.082031 48.859375 35.082031 47.730469 Z M 91.417969 47.730469 C 91.417969 46.601562 90.488281 45.675781 89.359375 45.675781 L 65.167969 45.675781 C 64.039062 45.675781 63.109375 46.601562 63.109375 47.730469 C 63.109375 48.859375 64.039062 49.789062 65.167969 49.789062 L 89.359375 49.789062 C 90.488281 49.789062 91.417969 48.898438 91.417969 47.730469 C 91.417969 47.773438 91.417969 47.730469 91.417969 47.730469 Z M 43.523438 47.730469 C 43.523438 46.601562 42.59375 45.675781 41.460938 45.675781 C 40.332031 45.675781 39.402344 46.601562 39.402344 47.730469 C 39.402344 48.859375 40.332031 49.789062 41.460938 49.789062 C 42.59375 49.789062 43.523438 48.859375 43.523438 47.730469 Z M 110.359375 47.730469 C 110.359375 46.601562 109.429688 45.675781 108.296875 45.675781 L 103.734375 45.675781 C 102.605469 45.675781 101.675781 46.601562 101.675781 47.730469 C 101.675781 48.859375 102.605469 49.789062 103.734375 49.789062 L 108.296875 49.789062 C 109.429688 49.789062 110.359375 48.859375 110.359375 47.730469 Z M 9.074219 47.730469 C 9.074219 46.601562 8.144531 45.675781 7.015625 45.675781 L 2.449219 45.675781 C 1.320312 45.675781 0.390625 46.601562 0.390625 47.730469 C 0.390625 48.859375 1.320312 49.789062 2.449219 49.789062 L 7.015625 49.789062 C 8.144531 49.789062 9.074219 48.859375 9.074219 47.730469 Z M 12.949219 120.898438 C 12.949219 119.769531 12.023438 118.84375 10.890625 118.84375 L 3.257812 118.84375 C 2.128906 118.84375 1.199219 119.769531 1.199219 120.898438 C 1.199219 122.027344 2.128906 122.957031 3.257812 122.957031 L 10.890625 122.957031 C 12.023438 122.957031 12.949219 122.027344 12.949219 120.898438 Z M 44.613281 120.898438 C 44.613281 119.769531 43.683594 118.84375 42.550781 118.84375 L 28.78125 118.84375 C 27.652344 118.84375 26.722656 119.769531 26.722656 120.898438 C 26.722656 122.027344 27.652344 122.957031 28.78125 122.957031 L 42.550781 122.957031 C 43.683594 122.957031 44.613281 122.027344 44.613281 120.898438 Z M 80.957031 120.898438 C 80.957031 119.769531 80.03125 118.84375 78.898438 118.84375 L 65.128906 118.84375 C 63.996094 118.84375 63.066406 119.769531 63.066406 120.898438 C 63.066406 122.027344 63.996094 122.957031 65.128906 122.957031 L 78.898438 122.957031 C 80.03125 122.957031 80.957031 122.027344 80.957031 120.898438 Z M 94.648438 120.898438 C 94.648438 119.769531 93.71875 118.84375 92.589844 118.84375 L 88.027344 118.84375 C 86.894531 118.84375 85.964844 119.769531 85.964844 120.898438 C 85.964844 122.027344 86.894531 122.957031 88.027344 122.957031 L 92.589844 122.957031 C 93.71875 122.957031 94.648438 122.027344 94.648438 120.898438 Z M 108.863281 120.898438 C 108.863281 119.769531 107.933594 118.84375 106.804688 118.84375 C 105.671875 118.84375 104.746094 119.769531 104.746094 120.898438 C 104.746094 122.027344 105.671875 122.957031 106.804688 122.957031 C 107.933594 122.957031 108.863281 122.027344 108.863281 120.898438 Z M 77.164062 111.75 C 77.164062 110.621094 76.234375 109.691406 75.101562 109.691406 L 61.332031 109.691406 C 60.199219 109.691406 59.273438 110.621094 59.273438 111.75 C 59.273438 112.878906 60.199219 113.804688 61.332031 113.804688 L 75.101562 113.804688 C 76.234375 113.804688 77.164062 112.878906 77.164062 111.75 Z M 48.933594 111.75 C 48.933594 110.621094 48.003906 109.691406 46.875 109.691406 L 42.308594 109.691406 C 41.179688 109.691406 40.25 110.621094 40.25 111.75 C 40.25 112.878906 41.179688 113.804688 42.308594 113.804688 L 46.875 113.804688 C 48.003906 113.804688 48.933594 112.878906 48.933594 111.75 Z M 57.011719 111.75 C 57.011719 110.621094 56.082031 109.691406 54.949219 109.691406 L 51.882812 109.691406 C 50.75 109.691406 49.820312 110.621094 49.820312 111.75 C 49.820312 112.878906 50.75 113.804688 51.882812 113.804688 L 54.949219 113.804688 C 56.082031 113.804688 57.011719 112.917969 57.011719 111.75 Z M 5.84375 111.75 C 5.84375 110.621094 4.914062 109.691406 3.785156 109.691406 C 2.652344 109.691406 1.722656 110.621094 1.722656 111.75 C 1.722656 112.878906 2.652344 113.804688 3.785156 113.804688 C 4.914062 113.804688 5.84375 112.917969 5.84375 111.75 C 5.84375 111.789062 5.84375 111.75 5.84375 111.75 Z M 98.40625 111.75 C 98.40625 110.621094 97.476562 109.691406 96.34375 109.691406 L 82.574219 109.691406 C 81.441406 109.691406 80.515625 110.621094 80.515625 111.75 C 80.515625 112.878906 81.441406 113.804688 82.574219 113.804688 L 96.34375 113.804688 C 97.476562 113.804688 98.40625 112.878906 98.40625 111.75 Z M 108.90625 111.75 C 108.90625 110.621094 107.976562 109.691406 106.84375 109.691406 L 102.28125 109.691406 C 101.152344 109.691406 100.222656 110.621094 100.222656 111.75 C 100.222656 112.878906 101.152344 113.804688 102.28125 113.804688 L 106.84375 113.804688 C 107.976562 113.804688 108.90625 112.917969 108.90625 111.75 C 108.90625 111.789062 108.90625 111.75 108.90625 111.75 Z M 30.398438 111.75 C 30.398438 110.621094 29.46875 109.691406 28.335938 109.691406 C 27.207031 109.691406 26.277344 110.621094 26.277344 111.75 C 26.277344 112.878906 27.207031 113.804688 28.335938 113.804688 C 29.46875 113.804688 30.398438 112.878906 30.398438 111.75 Z M 17.230469 111.75 C 17.230469 110.621094 16.304688 109.691406 15.171875 109.691406 L 10.609375 109.691406 C 9.476562 109.691406 8.550781 110.621094 8.550781 111.75 C 8.550781 112.878906 9.476562 113.804688 10.609375 113.804688 L 15.171875 113.804688 C 16.304688 113.804688 17.230469 112.878906 17.230469 111.75 Z M 75.183594 102.636719 C 75.183594 101.507812 74.253906 100.582031 73.125 100.582031 L 48.933594 100.582031 C 47.800781 100.582031 46.875 101.507812 46.875 102.636719 C 46.875 103.765625 47.800781 104.695312 48.933594 104.695312 L 73.125 104.695312 C 74.253906 104.695312 75.183594 103.765625 75.183594 102.636719 Z M 33.464844 102.636719 C 33.464844 101.507812 32.539062 100.582031 31.40625 100.582031 C 30.277344 100.582031 29.347656 101.507812 29.347656 102.636719 C 29.347656 103.765625 30.277344 104.695312 31.40625 104.695312 C 32.539062 104.695312 33.464844 103.765625 33.464844 102.636719 Z M 105.875 102.636719 C 105.875 101.507812 104.945312 100.582031 103.816406 100.582031 L 85.765625 100.582031 C 84.632812 100.582031 83.703125 101.507812 83.703125 102.636719 C 83.703125 103.765625 84.632812 104.695312 85.765625 104.695312 L 103.816406 104.695312 C 104.945312 104.695312 105.875 103.765625 105.875 102.636719 Z M 22.441406 102.636719 C 22.441406 101.507812 21.511719 100.582031 20.382812 100.582031 L 2.328125 100.582031 C 1.199219 100.582031 0.269531 101.507812 0.269531 102.636719 C 0.269531 103.765625 1.199219 104.695312 2.328125 104.695312 L 20.382812 104.695312 C 21.511719 104.695312 22.441406 103.765625 22.441406 102.636719 Z M 79.140625 56.882812 C 79.140625 55.753906 78.210938 54.828125 77.082031 54.828125 L 52.929688 54.828125 C 51.800781 54.828125 50.871094 55.753906 50.871094 56.882812 C 50.871094 58.011719 51.800781 58.9375 52.929688 58.9375 L 77.121094 58.9375 C 78.253906 58.898438 79.140625 58.011719 79.140625 56.882812 Z M 34.597656 56.882812 C 34.597656 55.753906 33.667969 54.828125 32.539062 54.828125 C 31.40625 54.828125 30.476562 55.753906 30.476562 56.882812 C 30.476562 58.011719 31.40625 58.9375 32.539062 58.9375 C 33.667969 58.898438 34.597656 58.011719 34.597656 56.882812 Z M 108.863281 56.882812 C 108.863281 55.753906 107.933594 54.828125 106.804688 54.828125 L 88.753906 54.828125 C 87.621094 54.828125 86.691406 55.753906 86.691406 56.882812 C 86.691406 58.011719 87.621094 58.9375 88.753906 58.9375 L 106.804688 58.9375 C 107.933594 58.898438 108.863281 58.011719 108.863281 56.882812 Z M 23.570312 56.882812 C 23.570312 55.753906 22.644531 54.828125 21.511719 54.828125 L 3.460938 54.828125 C 2.328125 54.828125 1.402344 55.753906 1.402344 56.882812 C 1.402344 58.011719 2.328125 58.9375 3.460938 58.9375 L 21.511719 58.9375 C 22.644531 58.898438 23.570312 58.011719 23.570312 56.882812 Z M 45.054688 56.882812 C 45.054688 55.753906 44.128906 54.828125 42.996094 54.828125 L 39.925781 54.828125 C 38.796875 54.828125 37.867188 55.753906 37.867188 56.882812 C 37.867188 58.011719 38.796875 58.9375 39.925781 58.9375 L 42.996094 58.9375 C 44.128906 58.898438 45.054688 58.011719 45.054688 56.882812 Z M 87.824219 20.316406 C 87.824219 19.1875 86.894531 18.261719 85.765625 18.261719 L 68.921875 18.261719 C 67.792969 18.261719 66.863281 19.1875 66.863281 20.316406 C 66.863281 21.445312 67.792969 22.375 68.921875 22.375 L 85.765625 22.375 C 86.894531 22.375 87.824219 21.445312 87.824219 20.316406 Z M 35.082031 20.316406 C 35.082031 19.1875 34.152344 18.261719 33.023438 18.261719 L 7.015625 18.261719 C 5.882812 18.261719 4.953125 19.1875 4.953125 20.316406 C 4.953125 21.445312 5.882812 22.375 7.015625 22.375 L 33.023438 22.375 C 34.152344 22.375 35.082031 21.445312 35.082031 20.316406 Z M 49.699219 20.316406 C 49.699219 19.1875 48.773438 18.261719 47.640625 18.261719 C 46.511719 18.261719 45.582031 19.1875 45.582031 20.316406 C 45.582031 21.445312 46.511719 22.375 47.640625 22.375 C 48.773438 22.375 49.699219 21.445312 49.699219 20.316406 Z M 108.460938 20.316406 C 108.460938 19.1875 107.53125 18.261719 106.402344 18.261719 L 101.835938 18.261719 C 100.707031 18.261719 99.777344 19.1875 99.777344 20.316406 C 99.777344 21.445312 100.707031 22.375 101.835938 22.375 L 106.402344 22.375 C 107.53125 22.375 108.460938 21.488281 108.460938 20.316406 Z M 96.101562 20.316406 C 96.101562 19.1875 95.171875 18.261719 94.042969 18.261719 C 92.914062 18.261719 91.984375 19.1875 91.984375 20.316406 C 91.984375 21.445312 92.914062 22.375 94.042969 22.375 C 95.171875 22.375 96.101562 21.445312 96.101562 20.316406 Z M 66.542969 130.292969 C 66.542969 129.164062 65.613281 128.238281 64.480469 128.238281 L 59.917969 128.238281 C 58.789062 128.238281 57.859375 129.164062 57.859375 130.292969 C 57.859375 131.421875 58.789062 132.347656 59.917969 132.347656 L 64.480469 132.347656 C 65.613281 132.347656 66.542969 131.421875 66.542969 130.292969 Z M 37.101562 130.292969 C 37.101562 129.164062 36.171875 128.238281 35.042969 128.238281 L 21.269531 128.238281 C 20.140625 128.238281 19.210938 129.164062 19.210938 130.292969 C 19.210938 131.421875 20.140625 132.347656 21.269531 132.347656 L 35.042969 132.347656 C 36.171875 132.347656 37.101562 131.421875 37.101562 130.292969 Z M 49.699219 130.292969 C 49.699219 129.164062 48.773438 128.238281 47.640625 128.238281 C 46.511719 128.238281 45.582031 129.164062 45.582031 130.292969 C 45.582031 131.421875 46.511719 132.347656 47.640625 132.347656 C 48.773438 132.347656 49.699219 131.421875 49.699219 130.292969 Z M 106.160156 130.292969 C 106.160156 129.164062 105.230469 128.238281 104.097656 128.238281 L 79.910156 128.238281 C 78.777344 128.238281 77.847656 129.164062 77.847656 130.292969 C 77.847656 131.421875 78.777344 132.347656 79.910156 132.347656 L 104.097656 132.347656 C 105.230469 132.347656 106.160156 131.421875 106.160156 130.292969 Z M 43.523438 130.292969 C 43.523438 129.164062 42.59375 128.238281 41.460938 128.238281 C 40.332031 128.238281 39.402344 129.164062 39.402344 130.292969 C 39.402344 131.421875 40.332031 132.347656 41.460938 132.347656 C 42.59375 132.347656 43.523438 131.421875 43.523438 130.292969 Z M 14.96875 130.011719 C 14.96875 128.882812 14.042969 127.957031 12.910156 127.957031 L 5.277344 127.957031 C 4.148438 127.957031 3.21875 128.882812 3.21875 130.011719 C 3.21875 131.140625 4.148438 132.066406 5.277344 132.066406 L 12.949219 132.066406 C 14.082031 132.066406 14.96875 131.179688 14.96875 130.050781 C 14.96875 130.050781 14.96875 130.011719 14.96875 130.011719 Z M 11.980469 75.183594 C 11.980469 74.054688 11.054688 73.128906 9.921875 73.128906 L 2.25 73.128906 C 1.117188 73.128906 0.1875 74.054688 0.1875 75.183594 C 0.1875 76.3125 1.117188 77.242188 2.25 77.242188 L 9.882812 77.242188 C 11.011719 77.242188 11.980469 76.3125 11.980469 75.183594 Z M 45.742188 75.183594 C 45.742188 74.054688 44.8125 73.128906 43.683594 73.128906 L 29.914062 73.128906 C 28.78125 73.128906 27.851562 74.054688 27.851562 75.183594 C 27.851562 76.3125 28.78125 77.242188 29.914062 77.242188 L 43.683594 77.242188 C 44.8125 77.242188 45.742188 76.3125 45.742188 75.183594 Z M 73.042969 75.144531 C 73.042969 74.015625 72.113281 73.089844 70.984375 73.089844 L 54.144531 73.089844 C 53.011719 73.089844 52.082031 74.015625 52.082031 75.144531 C 52.082031 76.273438 53.011719 77.199219 54.144531 77.199219 L 70.984375 77.199219 C 72.113281 77.160156 73.042969 76.273438 73.042969 75.144531 Z M 95.78125 75.183594 C 95.78125 74.054688 94.851562 73.128906 93.71875 73.128906 L 89.15625 73.128906 C 88.027344 73.128906 87.097656 74.054688 87.097656 75.183594 C 87.097656 76.3125 88.027344 77.242188 89.15625 77.242188 L 93.71875 77.242188 C 94.851562 77.242188 95.78125 76.3125 95.78125 75.183594 Z M 103.855469 75.183594 C 103.855469 74.054688 102.925781 73.128906 101.796875 73.128906 C 100.664062 73.128906 99.738281 74.054688 99.738281 75.183594 C 99.738281 76.3125 100.664062 77.242188 101.796875 77.242188 C 102.925781 77.242188 103.855469 76.3125 103.855469 75.183594 Z M 109.550781 75.144531 C 109.550781 74.015625 108.621094 73.089844 107.492188 73.089844 C 106.359375 73.089844 105.429688 74.015625 105.429688 75.144531 C 105.429688 76.273438 106.359375 77.199219 107.492188 77.199219 C 108.621094 77.160156 109.550781 76.273438 109.550781 75.144531 Z M 42.59375 38.621094 C 42.59375 37.492188 41.664062 36.5625 40.535156 36.5625 L 11.457031 36.5625 C 10.324219 36.5625 9.398438 37.492188 9.398438 38.621094 C 9.398438 39.75 10.324219 40.675781 11.457031 40.675781 L 40.535156 40.675781 C 41.664062 40.636719 42.59375 39.75 42.59375 38.621094 Z M 66.339844 38.621094 C 66.339844 37.492188 65.410156 36.5625 64.28125 36.5625 L 50.507812 36.5625 C 49.378906 36.5625 48.449219 37.492188 48.449219 38.621094 C 48.449219 39.75 49.378906 40.675781 50.507812 40.675781 L 64.28125 40.675781 C 65.410156 40.636719 66.339844 39.75 66.339844 38.621094 Z M 94.203125 38.621094 C 94.203125 37.492188 93.277344 36.5625 92.144531 36.5625 L 78.375 36.5625 C 77.242188 36.5625 76.3125 37.492188 76.3125 38.621094 C 76.3125 39.75 77.242188 40.675781 78.375 40.675781 L 92.144531 40.675781 C 93.277344 40.636719 94.203125 39.75 94.203125 38.621094 Z M 107.894531 38.621094 C 107.894531 37.492188 106.964844 36.5625 105.835938 36.5625 L 101.273438 36.5625 C 100.140625 36.5625 99.210938 37.492188 99.210938 38.621094 C 99.210938 39.75 100.140625 40.675781 101.273438 40.675781 L 105.835938 40.675781 C 106.964844 40.636719 107.894531 39.75 107.894531 38.621094 Z M 121.179688 38.621094 C 121.179688 37.492188 120.253906 36.5625 119.121094 36.5625 C 117.992188 36.5625 117.0625 37.492188 117.0625 38.621094 C 117.0625 39.75 117.992188 40.675781 119.121094 40.675781 C 120.253906 40.636719 121.179688 39.75 121.179688 38.621094 Z M 7.539062 38.621094 C 7.539062 37.492188 6.609375 36.5625 5.480469 36.5625 L 3.984375 36.5625 C 2.855469 36.5625 1.925781 37.492188 1.925781 38.621094 C 1.925781 39.75 2.855469 40.675781 3.984375 40.675781 L 5.519531 40.675781 C 6.652344 40.636719 7.539062 39.75 7.539062 38.621094 Z M 36.210938 139.445312 C 36.210938 138.316406 35.285156 137.386719 34.152344 137.386719 L 8.144531 137.386719 C 7.015625 137.386719 6.085938 138.316406 6.085938 139.445312 C 6.085938 140.574219 7.015625 141.5 8.144531 141.5 L 34.152344 141.5 C 35.285156 141.5 36.210938 140.574219 36.210938 139.445312 Z M 78.414062 139.445312 C 78.414062 138.316406 77.484375 137.386719 76.355469 137.386719 L 59.515625 137.386719 C 58.382812 137.386719 57.453125 138.316406 57.453125 139.445312 C 57.453125 140.574219 58.382812 141.5 59.515625 141.5 L 76.355469 141.5 C 77.484375 141.5 78.414062 140.574219 78.414062 139.445312 Z M 4.511719 139.445312 C 4.511719 138.316406 3.582031 137.386719 2.449219 137.386719 C 1.320312 137.386719 0.390625 138.316406 0.390625 139.445312 C 0.390625 140.574219 1.320312 141.5 2.449219 141.5 C 3.582031 141.5 4.511719 140.574219 4.511719 139.445312 Z M 96.183594 139.445312 C 96.183594 138.316406 95.253906 137.386719 94.125 137.386719 L 81.886719 137.386719 C 80.757812 137.386719 79.828125 138.316406 79.828125 139.445312 C 79.828125 140.574219 80.757812 141.5 81.886719 141.5 L 94.125 141.5 C 95.253906 141.5 96.183594 140.613281 96.183594 139.445312 Z M 108.984375 139.445312 C 108.984375 138.316406 108.054688 137.386719 106.925781 137.386719 L 102.363281 137.386719 C 101.230469 137.386719 100.300781 138.316406 100.300781 139.445312 C 100.300781 140.574219 101.230469 141.5 102.363281 141.5 L 106.925781 141.5 C 108.054688 141.5 108.984375 140.574219 108.984375 139.445312 Z M 128.734375 29.347656 C 128.734375 28.21875 127.804688 27.292969 126.671875 27.292969 L 112.902344 27.292969 C 111.773438 27.292969 110.84375 28.21875 110.84375 29.347656 C 110.84375 30.476562 111.773438 31.402344 112.902344 31.402344 L 126.671875 31.402344 C 127.804688 31.402344 128.734375 30.476562 128.734375 29.347656 Z M 130.105469 66.074219 C 130.105469 64.945312 129.175781 64.019531 128.046875 64.019531 L 114.277344 64.019531 C 113.144531 64.019531 112.214844 64.945312 112.214844 66.074219 C 112.214844 67.203125 113.144531 68.128906 114.277344 68.128906 L 128.046875 68.128906 C 129.175781 68.089844 130.066406 67.203125 130.105469 66.074219 Z M 143.273438 66.074219 C 143.273438 64.945312 142.34375 64.019531 141.210938 64.019531 L 138.144531 64.019531 C 137.011719 64.019531 136.082031 64.945312 136.082031 66.074219 C 136.082031 67.203125 137.011719 68.128906 138.144531 68.128906 L 141.210938 68.128906 C 142.34375 68.089844 143.230469 67.203125 143.273438 66.074219 Z M 137.699219 2.054688 C 137.699219 0.925781 136.769531 0 135.640625 0 L 132.570312 0 C 131.4375 0 130.511719 0.925781 130.511719 2.054688 C 130.511719 3.183594 131.4375 4.113281 132.570312 4.113281 L 135.640625 4.113281 C 136.769531 4.113281 137.699219 3.183594 137.699219 2.054688 Z M 134.75 47.730469 C 134.75 46.601562 133.820312 45.675781 132.691406 45.675781 L 128.128906 45.675781 C 126.996094 45.675781 126.066406 46.601562 126.066406 47.730469 C 126.066406 48.859375 126.996094 49.789062 128.128906 49.789062 L 132.691406 49.789062 C 133.820312 49.789062 134.75 48.859375 134.75 47.730469 Z M 116.496094 47.730469 C 116.496094 46.601562 115.566406 45.675781 114.4375 45.675781 C 113.304688 45.675781 112.378906 46.601562 112.378906 47.730469 C 112.378906 48.859375 113.304688 49.789062 114.4375 49.789062 C 115.566406 49.789062 116.496094 48.859375 116.496094 47.730469 Z M 144.847656 56.882812 C 144.847656 55.753906 143.917969 54.828125 142.785156 54.828125 L 126.671875 54.828125 C 125.542969 54.828125 124.613281 55.753906 124.613281 56.882812 C 124.613281 58.011719 125.542969 58.9375 126.671875 58.9375 L 142.785156 58.9375 C 143.917969 58.898438 144.847656 58.011719 144.847656 56.882812 Z M 121.625 56.519531 C 121.625 55.390625 120.695312 54.464844 119.566406 54.464844 L 116.496094 54.464844 C 115.367188 54.464844 114.4375 55.390625 114.4375 56.519531 C 114.4375 57.648438 115.367188 58.574219 116.496094 58.574219 L 119.566406 58.574219 C 120.695312 58.574219 121.625 57.648438 121.625 56.519531 Z M 145.210938 20.316406 C 145.210938 19.1875 144.28125 18.261719 143.152344 18.261719 L 126.308594 18.261719 C 125.179688 18.261719 124.25 19.1875 124.25 20.316406 C 124.25 21.445312 125.179688 22.375 126.308594 22.375 L 143.152344 22.375 C 144.28125 22.375 145.210938 21.445312 145.210938 20.316406 Z M 117.425781 20.316406 C 117.425781 19.1875 116.496094 18.261719 115.367188 18.261719 C 114.234375 18.261719 113.304688 19.1875 113.304688 20.316406 C 113.304688 21.445312 114.234375 22.375 115.367188 22.375 C 116.496094 22.375 117.425781 21.445312 117.425781 20.316406 Z M 122.3125 75.265625 C 122.3125 74.136719 121.382812 73.210938 120.253906 73.210938 L 106.480469 73.210938 C 105.351562 73.210938 104.421875 74.136719 104.421875 75.265625 C 104.421875 76.394531 105.351562 77.320312 106.480469 77.320312 L 120.253906 77.320312 C 121.382812 77.28125 122.3125 76.394531 122.3125 75.265625 Z M 145.976562 75.183594 C 145.976562 74.054688 145.046875 73.128906 143.917969 73.128906 L 130.710938 73.128906 C 129.582031 73.128906 128.652344 74.054688 128.652344 75.183594 C 128.652344 76.3125 129.582031 77.242188 130.710938 77.242188 L 143.917969 77.242188 C 145.046875 77.242188 145.976562 76.3125 145.976562 75.183594 Z M 145.898438 38.257812 C 145.898438 37.128906 144.96875 36.203125 143.835938 36.203125 L 130.066406 36.203125 C 128.933594 36.203125 128.007812 37.128906 128.007812 38.257812 C 128.007812 39.386719 128.933594 40.3125 130.066406 40.3125 L 143.835938 40.3125 C 144.96875 40.3125 145.898438 39.425781 145.898438 38.257812 Z M 138.0625 11.207031 C 138.0625 10.078125 137.132812 9.152344 136.003906 9.152344 L 119.164062 9.152344 C 118.03125 9.152344 117.101562 10.078125 117.101562 11.207031 C 117.101562 12.335938 118.03125 13.261719 119.164062 13.261719 L 136.003906 13.261719 C 137.132812 13.261719 138.0625 12.335938 138.0625 11.207031 Z M 144.847656 2.054688 C 144.847656 0.925781 143.917969 0 142.785156 0 C 141.65625 0 140.726562 0.925781 140.726562 2.054688 C 140.726562 3.183594 141.65625 4.113281 142.785156 4.113281 C 143.917969 4.113281 144.847656 3.183594 144.847656 2.054688 Z M 139.03125 29.226562 C 138.992188 28.097656 138.0625 27.210938 136.929688 27.25 C 135.800781 27.292969 134.910156 28.21875 134.953125 29.347656 C 134.992188 30.476562 135.921875 31.363281 137.050781 31.324219 C 138.183594 31.285156 139.070312 30.394531 139.03125 29.269531 C 139.03125 29.269531 139.03125 29.226562 139.03125 29.226562 Z M 116.496094 47.730469 C 116.496094 46.601562 115.566406 45.675781 114.4375 45.675781 C 113.304688 45.675781 112.378906 46.601562 112.378906 47.730469 C 112.378906 48.859375 113.304688 49.789062 114.4375 49.789062 C 115.566406 49.789062 116.496094 48.859375 116.496094 47.730469 Z M 123.441406 120.898438 C 123.441406 119.769531 122.515625 118.84375 121.382812 118.84375 L 113.75 118.84375 C 112.621094 118.84375 111.691406 119.769531 111.691406 120.898438 C 111.691406 122.027344 112.621094 122.957031 113.75 122.957031 L 121.382812 122.957031 C 122.515625 122.957031 123.441406 122.027344 123.441406 120.898438 Z M 144.804688 84.335938 C 144.804688 83.207031 143.878906 82.28125 142.746094 82.28125 L 137.050781 82.28125 C 135.921875 82.28125 134.992188 83.207031 134.992188 84.335938 C 134.992188 85.464844 135.921875 86.390625 137.050781 86.390625 L 142.746094 86.390625 C 143.878906 86.351562 144.804688 85.464844 144.804688 84.335938 Z M 116.335938 111.75 C 116.335938 110.621094 115.40625 109.691406 114.277344 109.691406 C 113.144531 109.691406 112.214844 110.621094 112.214844 111.75 C 112.214844 112.878906 113.144531 113.804688 114.277344 113.804688 C 115.40625 113.804688 116.335938 112.878906 116.335938 111.75 Z M 140.890625 111.75 C 140.890625 110.621094 139.960938 109.691406 138.828125 109.691406 C 137.699219 109.691406 136.769531 110.621094 136.769531 111.75 C 136.769531 112.878906 137.699219 113.804688 138.828125 113.804688 C 139.960938 113.804688 140.890625 112.878906 140.890625 111.75 Z M 140.96875 102.636719 C 140.96875 101.507812 140.039062 100.582031 138.910156 100.582031 L 120.859375 100.582031 C 119.726562 100.582031 118.796875 101.507812 118.796875 102.636719 C 118.796875 103.765625 119.726562 104.695312 120.859375 104.695312 L 138.910156 104.695312 C 140.039062 104.695312 140.96875 103.765625 140.96875 102.636719 Z M 145.535156 130.292969 C 145.535156 129.164062 144.605469 128.238281 143.472656 128.238281 L 129.703125 128.238281 C 128.570312 128.238281 127.644531 129.164062 127.644531 130.292969 C 127.644531 131.421875 128.570312 132.347656 129.703125 132.347656 L 143.472656 132.347656 C 144.605469 132.347656 145.535156 131.460938 145.535156 130.292969 Z M 125.460938 130.011719 C 125.460938 128.882812 124.535156 127.957031 123.402344 127.957031 L 115.769531 127.957031 C 114.640625 127.957031 113.710938 128.882812 113.710938 130.011719 C 113.710938 131.140625 114.640625 132.066406 115.769531 132.066406 L 123.402344 132.066406 C 124.535156 132.066406 125.460938 131.140625 125.460938 130.011719 Z M 143.472656 139.445312 C 143.472656 138.316406 142.542969 137.386719 141.414062 137.386719 L 127.523438 137.386719 C 126.390625 137.386719 125.460938 138.316406 125.460938 139.445312 C 125.460938 140.574219 126.390625 141.5 127.523438 141.5 L 141.414062 141.5 C 142.542969 141.5 143.472656 140.574219 143.472656 139.445312 Z M 131.238281 84.335938 C 131.238281 83.207031 130.308594 82.28125 129.175781 82.28125 L 115.40625 82.28125 C 114.277344 82.28125 113.347656 83.207031 113.347656 84.335938 C 113.347656 85.464844 114.277344 86.390625 115.40625 86.390625 L 129.175781 86.390625 C 130.308594 86.351562 131.238281 85.464844 131.238281 84.335938 Z M 140.890625 111.75 C 140.890625 110.621094 139.960938 109.691406 138.828125 109.691406 C 137.699219 109.691406 136.769531 110.621094 136.769531 111.75 C 136.769531 112.878906 137.699219 113.804688 138.828125 113.804688 C 139.960938 113.804688 140.890625 112.878906 140.890625 111.75 Z M 142.140625 120.898438 C 142.140625 119.769531 141.210938 118.84375 140.082031 118.84375 L 126.308594 118.84375 C 125.179688 118.84375 124.25 119.769531 124.25 120.898438 C 124.25 122.027344 125.179688 122.957031 126.308594 122.957031 L 140.082031 122.957031 C 141.210938 122.957031 142.140625 122.027344 142.140625 120.898438 Z M 143.472656 139.445312 C 143.472656 138.316406 142.542969 137.386719 141.414062 137.386719 L 127.523438 137.386719 C 126.390625 137.386719 125.460938 138.316406 125.460938 139.445312 C 125.460938 140.574219 126.390625 141.5 127.523438 141.5 L 141.414062 141.5 C 142.542969 141.5 143.472656 140.574219 143.472656 139.445312 Z M 140.890625 111.75 C 140.890625 110.621094 139.960938 109.691406 138.828125 109.691406 C 137.699219 109.691406 136.769531 110.621094 136.769531 111.75 C 136.769531 112.878906 137.699219 113.804688 138.828125 113.804688 C 139.960938 113.804688 140.890625 112.878906 140.890625 111.75 Z M 125.867188 93.488281 C 125.867188 92.359375 124.9375 91.429688 123.804688 91.429688 C 122.675781 91.429688 121.746094 92.359375 121.746094 93.488281 C 121.746094 94.617188 122.675781 95.542969 123.804688 95.542969 C 124.9375 95.542969 125.867188 94.617188 125.867188 93.488281 Z M 145.332031 93.445312 C 145.332031 92.316406 144.402344 91.390625 143.273438 91.390625 C 142.140625 91.390625 141.210938 92.316406 141.210938 93.445312 C 141.210938 94.574219 142.140625 95.503906 143.273438 95.503906 C 144.402344 95.503906 145.332031 94.574219 145.332031 93.445312 Z M 145.332031 93.445312 " fill-opacity="1" fill-rule="nonzero"/></g><g clip-path="url(#9cb0a14160)"><path fill="#383838" d="M 215.199219 139.421875 C 215.199219 140.550781 216.125 141.476562 217.257812 141.476562 L 251.261719 141.476562 C 252.390625 141.476562 253.320312 140.550781 253.320312 139.421875 C 253.320312 138.292969 252.390625 137.363281 251.261719 137.363281 L 217.214844 137.363281 C 216.085938 137.40625 215.199219 138.292969 215.199219 139.421875 Z M 168.632812 139.421875 C 168.632812 140.550781 169.5625 141.476562 170.695312 141.476562 L 190.601562 141.476562 C 191.734375 141.476562 192.664062 140.550781 192.664062 139.421875 C 192.664062 138.292969 191.734375 137.363281 190.601562 137.363281 L 170.695312 137.363281 C 169.5625 137.363281 168.632812 138.292969 168.632812 139.421875 Z M 195.289062 139.421875 C 195.289062 140.550781 196.214844 141.476562 197.347656 141.476562 L 211.117188 141.476562 C 212.25 141.476562 213.179688 140.550781 213.179688 139.421875 C 213.179688 138.292969 212.25 137.363281 211.117188 137.363281 L 197.347656 137.363281 C 196.214844 137.363281 195.289062 138.292969 195.289062 139.421875 Z M 255.136719 139.421875 C 255.136719 140.550781 256.066406 141.476562 257.199219 141.476562 L 261.800781 141.476562 C 262.933594 141.476562 263.859375 140.550781 263.859375 139.421875 C 263.859375 138.292969 262.933594 137.363281 261.800781 137.363281 L 257.238281 137.363281 C 256.105469 137.363281 255.136719 138.292969 255.136719 139.421875 Z M 267.210938 139.421875 C 267.210938 140.550781 268.140625 141.476562 269.273438 141.476562 L 289.140625 141.476562 C 290.273438 141.476562 291.199219 140.550781 291.199219 139.421875 C 291.199219 138.292969 290.273438 137.363281 289.140625 137.363281 L 269.273438 137.363281 C 268.140625 137.363281 267.210938 138.292969 267.210938 139.421875 Z M 211.722656 112.007812 C 211.722656 113.136719 212.652344 114.0625 213.785156 114.0625 L 236.722656 114.0625 C 237.851562 114.0625 238.78125 113.136719 238.78125 112.007812 C 238.78125 110.878906 237.851562 109.953125 236.722656 109.953125 L 213.785156 109.953125 C 212.652344 109.953125 211.722656 110.878906 211.722656 112.007812 Z M 246.210938 112.007812 C 246.210938 113.136719 247.140625 114.0625 248.273438 114.0625 L 262.042969 114.0625 C 263.175781 114.0625 264.101562 113.136719 264.101562 112.007812 C 264.101562 110.878906 263.175781 109.953125 262.042969 109.953125 L 248.273438 109.953125 C 247.140625 109.953125 246.210938 110.878906 246.210938 112.007812 Z M 274.441406 112.007812 C 274.441406 113.136719 275.371094 114.0625 276.5 114.0625 L 281.066406 114.0625 C 282.195312 114.0625 283.125 113.136719 283.125 112.007812 C 283.125 110.878906 282.195312 109.953125 281.066406 109.953125 L 276.5 109.953125 C 275.371094 109.953125 274.441406 110.839844 274.441406 112.007812 Z M 286.960938 112.007812 C 286.960938 113.136719 287.890625 114.0625 289.019531 114.0625 C 290.152344 114.0625 291.078125 113.136719 291.078125 112.007812 C 291.078125 110.878906 290.152344 109.953125 289.019531 109.953125 C 287.890625 109.953125 286.960938 110.878906 286.960938 112.007812 Z M 191.9375 112.007812 C 191.9375 113.136719 192.863281 114.0625 193.996094 114.0625 L 207.765625 114.0625 C 208.898438 114.0625 209.828125 113.136719 209.828125 112.007812 C 209.828125 110.878906 208.898438 109.953125 207.765625 109.953125 L 193.996094 109.953125 C 192.863281 109.953125 191.9375 110.878906 191.9375 112.007812 Z M 181.4375 112.007812 C 181.4375 113.136719 182.363281 114.0625 183.496094 114.0625 L 188.058594 114.0625 C 189.191406 114.0625 190.117188 113.136719 190.117188 112.007812 C 190.117188 110.878906 189.191406 109.953125 188.058594 109.953125 L 183.496094 109.953125 C 182.363281 109.953125 181.4375 110.878906 181.4375 112.007812 Z M 213.21875 75.484375 C 213.21875 76.613281 214.148438 77.539062 215.277344 77.539062 L 229.050781 77.539062 C 230.179688 77.539062 231.109375 76.613281 231.109375 75.484375 C 231.109375 74.355469 230.179688 73.429688 229.050781 73.429688 L 215.277344 73.429688 C 214.148438 73.429688 213.21875 74.355469 213.21875 75.484375 Z M 242.820312 75.484375 C 242.820312 76.613281 243.75 77.539062 244.878906 77.539062 L 258.652344 77.539062 C 259.78125 77.539062 260.710938 76.613281 260.710938 75.484375 C 260.710938 74.355469 259.78125 73.429688 258.652344 73.429688 L 244.878906 73.429688 C 243.75 73.429688 242.820312 74.355469 242.820312 75.484375 Z M 233.328125 75.484375 C 233.328125 76.613281 234.257812 77.539062 235.390625 77.539062 L 238.457031 77.539062 C 239.589844 77.539062 240.519531 76.613281 240.519531 75.484375 C 240.519531 74.355469 239.589844 73.429688 238.457031 73.429688 L 235.390625 73.429688 C 234.257812 73.429688 233.328125 74.355469 233.328125 75.484375 Z M 284.496094 75.484375 C 284.496094 76.613281 285.425781 77.539062 286.558594 77.539062 C 287.6875 77.539062 288.617188 76.613281 288.617188 75.484375 C 288.617188 74.355469 287.6875 73.429688 286.558594 73.429688 C 285.425781 73.429688 284.496094 74.355469 284.496094 75.484375 Z M 191.9375 75.484375 C 191.9375 76.613281 192.863281 77.539062 193.996094 77.539062 L 207.765625 77.539062 C 208.898438 77.539062 209.828125 76.613281 209.828125 75.484375 C 209.828125 74.355469 208.898438 73.429688 207.765625 73.429688 L 193.996094 73.429688 C 192.863281 73.429688 191.9375 74.355469 191.9375 75.484375 Z M 181.4375 75.484375 C 181.4375 76.613281 182.363281 77.539062 183.496094 77.539062 L 188.058594 77.539062 C 189.191406 77.539062 190.117188 76.613281 190.117188 75.484375 C 190.117188 74.355469 189.191406 73.429688 188.058594 73.429688 L 183.496094 73.429688 C 182.363281 73.429688 181.4375 74.355469 181.4375 75.484375 Z M 265.558594 75.484375 C 265.558594 76.613281 266.484375 77.539062 267.617188 77.539062 L 272.179688 77.539062 C 273.3125 77.539062 274.238281 76.613281 274.238281 75.484375 C 274.238281 74.355469 273.3125 73.429688 272.179688 73.429688 L 267.617188 73.429688 C 266.484375 73.429688 265.558594 74.355469 265.558594 75.484375 Z M 245.042969 57.140625 C 245.042969 58.269531 245.96875 59.195312 247.101562 59.195312 L 273.109375 59.195312 C 274.238281 59.195312 275.167969 58.269531 275.167969 57.140625 C 275.167969 56.011719 274.238281 55.085938 273.109375 55.085938 L 247.101562 55.085938 C 245.96875 55.125 245.042969 56.011719 245.042969 57.140625 Z M 211.722656 57.140625 C 211.722656 58.269531 212.652344 59.195312 213.785156 59.195312 L 230.625 59.195312 C 231.753906 59.195312 232.683594 58.269531 232.683594 57.140625 C 232.683594 56.011719 231.753906 55.085938 230.625 55.085938 L 213.785156 55.085938 C 212.652344 55.125 211.722656 56.011719 211.722656 57.140625 Z M 285.628906 57.140625 C 285.628906 58.269531 286.558594 59.195312 287.6875 59.195312 C 288.816406 59.195312 289.746094 58.269531 289.746094 57.140625 C 289.746094 56.011719 288.816406 55.085938 287.6875 55.085938 C 286.558594 55.085938 285.628906 56.011719 285.628906 57.140625 Z M 193.957031 57.140625 C 193.957031 58.269531 194.882812 59.195312 196.015625 59.195312 L 208.25 59.195312 C 209.382812 59.195312 210.3125 58.269531 210.3125 57.140625 C 210.3125 56.011719 209.382812 55.085938 208.25 55.085938 L 196.015625 55.085938 C 194.882812 55.125 193.957031 56.011719 193.957031 57.140625 Z M 181.152344 57.140625 C 181.152344 58.269531 182.082031 59.195312 183.210938 59.195312 L 187.777344 59.195312 C 188.90625 59.195312 189.835938 58.269531 189.835938 57.140625 C 189.835938 56.011719 188.90625 55.085938 187.777344 55.085938 L 183.210938 55.085938 C 182.082031 55.125 181.152344 56.011719 181.152344 57.140625 Z M 224.242188 48.03125 C 224.242188 49.160156 225.171875 50.085938 226.304688 50.085938 L 237.003906 50.085938 C 238.136719 50.085938 239.066406 49.160156 239.066406 48.03125 C 239.066406 46.902344 238.136719 45.972656 237.003906 45.972656 L 226.304688 45.972656 C 225.171875 45.972656 224.242188 46.902344 224.242188 48.03125 Z M 243.75 48.03125 C 243.75 49.160156 244.679688 50.085938 245.808594 50.085938 L 259.578125 50.085938 C 260.710938 50.085938 261.640625 49.160156 261.640625 48.03125 C 261.640625 46.902344 260.710938 45.972656 259.578125 45.972656 L 245.808594 45.972656 C 244.679688 45.972656 243.75 46.902344 243.75 48.03125 Z M 274.441406 48.03125 C 274.441406 49.160156 275.371094 50.085938 276.5 50.085938 L 281.066406 50.085938 C 282.195312 50.085938 283.125 49.160156 283.125 48.03125 C 283.125 46.902344 282.195312 45.972656 281.066406 45.972656 L 276.5 45.972656 C 275.371094 45.972656 274.441406 46.859375 274.441406 48.03125 Z M 266.324219 48.03125 C 266.324219 49.160156 267.253906 50.085938 268.382812 50.085938 L 271.453125 50.085938 C 272.582031 50.085938 273.511719 49.160156 273.511719 48.03125 C 273.511719 46.902344 272.582031 45.972656 271.453125 45.972656 L 268.382812 45.972656 C 267.253906 45.972656 266.324219 46.902344 266.324219 48.03125 Z M 197.710938 47.988281 C 197.710938 49.117188 198.640625 50.046875 199.769531 50.046875 L 213.542969 50.046875 C 214.671875 50.046875 215.601562 49.117188 215.601562 47.988281 C 215.601562 46.859375 214.671875 45.933594 213.542969 45.933594 L 199.769531 45.933594 C 198.640625 45.933594 197.710938 46.859375 197.710938 47.988281 Z M 171.742188 48.03125 C 171.742188 49.160156 172.671875 50.085938 173.804688 50.085938 L 184.503906 50.085938 C 185.636719 50.085938 186.566406 49.160156 186.566406 48.03125 C 186.566406 46.902344 185.636719 45.972656 184.503906 45.972656 L 173.804688 45.972656 C 172.671875 45.972656 171.742188 46.902344 171.742188 48.03125 Z M 216.652344 130.269531 C 216.652344 131.398438 217.578125 132.324219 218.710938 132.324219 L 238.578125 132.324219 C 239.710938 132.324219 240.640625 131.398438 240.640625 130.269531 C 240.640625 129.140625 239.710938 128.214844 238.578125 128.214844 L 218.671875 128.214844 C 217.539062 128.253906 216.652344 129.140625 216.652344 130.269531 Z M 200.660156 130.269531 C 200.660156 131.398438 201.585938 132.324219 202.71875 132.324219 L 207.28125 132.324219 C 208.414062 132.324219 209.339844 131.398438 209.339844 130.269531 C 209.339844 129.140625 208.414062 128.214844 207.28125 128.214844 L 202.71875 128.214844 C 201.585938 128.214844 200.660156 129.140625 200.660156 130.269531 Z M 253.320312 130.269531 C 253.320312 131.398438 254.25 132.324219 255.378906 132.324219 L 259.945312 132.324219 C 261.074219 132.324219 262.003906 131.398438 262.003906 130.269531 C 262.003906 129.140625 261.074219 128.214844 259.945312 128.214844 L 255.378906 128.214844 C 254.25 128.214844 253.320312 129.140625 253.320312 130.269531 Z M 244.921875 130.269531 C 244.921875 131.398438 245.847656 132.324219 246.980469 132.324219 L 250.050781 132.324219 C 251.179688 132.324219 252.109375 131.398438 252.109375 130.269531 C 252.109375 129.140625 251.179688 128.214844 250.050781 128.214844 L 246.980469 128.214844 C 245.847656 128.214844 244.921875 129.140625 244.921875 130.269531 Z M 181.195312 130.269531 C 181.195312 131.398438 182.121094 132.324219 183.253906 132.324219 L 197.023438 132.324219 C 198.15625 132.324219 199.082031 131.398438 199.082031 130.269531 C 199.082031 129.140625 198.15625 128.214844 197.023438 128.214844 L 183.253906 128.214844 C 182.121094 128.214844 181.195312 129.140625 181.195312 130.269531 Z M 269.796875 130.269531 C 269.796875 131.398438 270.726562 132.324219 271.855469 132.324219 L 288.695312 132.324219 C 289.828125 132.324219 290.757812 131.398438 290.757812 130.269531 C 290.757812 129.140625 289.828125 128.214844 288.695312 128.214844 L 271.855469 128.214844 C 270.726562 128.214844 269.796875 129.140625 269.796875 130.269531 Z M 232.441406 93.746094 C 232.441406 94.875 233.371094 95.800781 234.5 95.800781 L 239.066406 95.800781 C 240.195312 95.800781 241.125 94.875 241.125 93.746094 C 241.125 92.617188 240.195312 91.691406 239.066406 91.691406 L 234.5 91.691406 C 233.371094 91.691406 232.441406 92.617188 232.441406 93.746094 Z M 256.429688 93.746094 C 256.429688 94.875 257.359375 95.800781 258.488281 95.800781 L 272.261719 95.800781 C 273.390625 95.800781 274.320312 94.875 274.320312 93.746094 C 274.320312 92.617188 273.390625 91.691406 272.261719 91.691406 L 258.488281 91.691406 C 257.359375 91.691406 256.429688 92.617188 256.429688 93.746094 Z M 200.09375 93.746094 C 200.09375 94.875 201.023438 95.800781 202.152344 95.800781 L 226.34375 95.800781 C 227.472656 95.800781 228.402344 94.875 228.402344 93.746094 C 228.402344 92.617188 227.472656 91.691406 226.34375 91.691406 L 202.152344 91.691406 C 201.023438 91.691406 200.09375 92.578125 200.09375 93.746094 C 200.09375 93.707031 200.09375 93.746094 200.09375 93.746094 Z M 247.988281 93.746094 C 247.988281 94.875 248.917969 95.800781 250.050781 95.800781 C 251.179688 95.800781 252.109375 94.875 252.109375 93.746094 C 252.109375 92.617188 251.179688 91.691406 250.050781 91.691406 C 248.917969 91.691406 247.988281 92.617188 247.988281 93.746094 Z M 181.152344 93.746094 C 181.152344 94.875 182.082031 95.800781 183.210938 95.800781 L 187.777344 95.800781 C 188.90625 95.800781 189.835938 94.875 189.835938 93.746094 C 189.835938 92.617188 188.90625 91.691406 187.777344 91.691406 L 183.210938 91.691406 C 182.082031 91.691406 181.152344 92.617188 181.152344 93.746094 Z M 282.4375 93.746094 C 282.4375 94.875 283.367188 95.800781 284.496094 95.800781 L 289.0625 95.800781 C 290.191406 95.800781 291.121094 94.875 291.121094 93.746094 C 291.121094 92.617188 290.191406 91.691406 289.0625 91.691406 L 284.496094 91.691406 C 283.367188 91.691406 282.4375 92.617188 282.4375 93.746094 Z M 278.5625 20.578125 C 278.5625 21.707031 279.488281 22.632812 280.621094 22.632812 L 288.253906 22.632812 C 289.382812 22.632812 290.3125 21.707031 290.3125 20.578125 C 290.3125 19.449219 289.382812 18.519531 288.253906 18.519531 L 280.621094 18.519531 C 279.488281 18.519531 278.5625 19.449219 278.5625 20.578125 Z M 246.898438 20.578125 C 246.898438 21.707031 247.828125 22.632812 248.957031 22.632812 L 262.730469 22.632812 C 263.859375 22.632812 264.789062 21.707031 264.789062 20.578125 C 264.789062 19.449219 263.859375 18.519531 262.730469 18.519531 L 248.957031 18.519531 C 247.828125 18.519531 246.898438 19.449219 246.898438 20.578125 Z M 210.554688 20.578125 C 210.554688 21.707031 211.480469 22.632812 212.613281 22.632812 L 226.382812 22.632812 C 227.515625 22.632812 228.445312 21.707031 228.445312 20.578125 C 228.445312 19.449219 227.515625 18.519531 226.382812 18.519531 L 212.613281 18.519531 C 211.480469 18.519531 210.554688 19.449219 210.554688 20.578125 Z M 196.863281 20.578125 C 196.863281 21.707031 197.792969 22.632812 198.921875 22.632812 L 203.484375 22.632812 C 204.617188 22.632812 205.546875 21.707031 205.546875 20.578125 C 205.546875 19.449219 204.617188 18.519531 203.484375 18.519531 L 198.921875 18.519531 C 197.792969 18.519531 196.863281 19.449219 196.863281 20.578125 Z M 182.648438 20.578125 C 182.648438 21.707031 183.578125 22.632812 184.707031 22.632812 C 185.835938 22.632812 186.765625 21.707031 186.765625 20.578125 C 186.765625 19.449219 185.835938 18.519531 184.707031 18.519531 C 183.578125 18.519531 182.648438 19.449219 182.648438 20.578125 Z M 214.347656 29.726562 C 214.347656 30.855469 215.277344 31.785156 216.410156 31.785156 L 230.179688 31.785156 C 231.3125 31.785156 232.238281 30.855469 232.238281 29.726562 C 232.238281 28.597656 231.3125 27.671875 230.179688 27.671875 L 216.410156 27.671875 C 215.277344 27.671875 214.347656 28.597656 214.347656 29.726562 Z M 242.578125 29.726562 C 242.578125 30.855469 243.507812 31.785156 244.636719 31.785156 L 249.199219 31.785156 C 250.332031 31.785156 251.261719 30.855469 251.261719 29.726562 C 251.261719 28.597656 250.332031 27.671875 249.199219 27.671875 L 244.636719 27.671875 C 243.507812 27.671875 242.578125 28.597656 242.578125 29.726562 Z M 234.5 29.726562 C 234.5 30.855469 235.429688 31.785156 236.5625 31.785156 L 239.628906 31.785156 C 240.761719 31.785156 241.691406 30.855469 241.691406 29.726562 C 241.691406 28.597656 240.761719 27.671875 239.628906 27.671875 L 236.5625 27.671875 C 235.429688 27.671875 234.5 28.558594 234.5 29.726562 Z M 285.667969 29.726562 C 285.667969 30.855469 286.597656 31.785156 287.726562 31.785156 C 288.859375 31.785156 289.789062 30.855469 289.789062 29.726562 C 289.789062 28.597656 288.859375 27.671875 287.726562 27.671875 C 286.597656 27.671875 285.667969 28.558594 285.667969 29.726562 C 285.667969 29.6875 285.667969 29.726562 285.667969 29.726562 Z M 193.105469 29.726562 C 193.105469 30.855469 194.035156 31.785156 195.167969 31.785156 L 208.9375 31.785156 C 210.070312 31.785156 210.996094 30.855469 210.996094 29.726562 C 210.996094 28.597656 210.070312 27.671875 208.9375 27.671875 L 195.167969 27.671875 C 194.035156 27.671875 193.105469 28.597656 193.105469 29.726562 Z M 182.605469 29.726562 C 182.605469 30.855469 183.535156 31.785156 184.667969 31.785156 L 189.230469 31.785156 C 190.359375 31.785156 191.289062 30.855469 191.289062 29.726562 C 191.289062 28.597656 190.359375 27.671875 189.230469 27.671875 L 184.667969 27.671875 C 183.535156 27.671875 182.605469 28.558594 182.605469 29.726562 C 182.605469 29.6875 182.605469 29.726562 182.605469 29.726562 Z M 261.113281 29.726562 C 261.113281 30.855469 262.042969 31.785156 263.175781 31.785156 C 264.304688 31.785156 265.234375 30.855469 265.234375 29.726562 C 265.234375 28.597656 264.304688 27.671875 263.175781 27.671875 C 262.042969 27.671875 261.113281 28.597656 261.113281 29.726562 Z M 274.28125 29.726562 C 274.28125 30.855469 275.207031 31.785156 276.339844 31.785156 L 280.902344 31.785156 C 282.035156 31.785156 282.960938 30.855469 282.960938 29.726562 C 282.960938 28.597656 282.035156 27.671875 280.902344 27.671875 L 276.339844 27.671875 C 275.207031 27.671875 274.28125 28.597656 274.28125 29.726562 Z M 216.328125 38.839844 C 216.328125 39.96875 217.257812 40.894531 218.386719 40.894531 L 242.578125 40.894531 C 243.707031 40.894531 244.636719 39.96875 244.636719 38.839844 C 244.636719 37.710938 243.707031 36.78125 242.578125 36.78125 L 218.386719 36.78125 C 217.257812 36.78125 216.328125 37.710938 216.328125 38.839844 Z M 258.046875 38.839844 C 258.046875 39.96875 258.972656 40.894531 260.105469 40.894531 C 261.234375 40.894531 262.164062 39.96875 262.164062 38.839844 C 262.164062 37.710938 261.234375 36.78125 260.105469 36.78125 C 258.972656 36.78125 258.046875 37.710938 258.046875 38.839844 Z M 185.636719 38.839844 C 185.636719 39.96875 186.566406 40.894531 187.695312 40.894531 L 205.746094 40.894531 C 206.878906 40.894531 207.808594 39.96875 207.808594 38.839844 C 207.808594 37.710938 206.878906 36.78125 205.746094 36.78125 L 187.695312 36.78125 C 186.566406 36.78125 185.636719 37.710938 185.636719 38.839844 Z M 269.070312 38.839844 C 269.070312 39.96875 270 40.894531 271.128906 40.894531 L 289.183594 40.894531 C 290.3125 40.894531 291.242188 39.96875 291.242188 38.839844 C 291.242188 37.710938 290.3125 36.78125 289.183594 36.78125 L 271.128906 36.78125 C 270 36.78125 269.070312 37.710938 269.070312 38.839844 Z M 212.371094 84.59375 C 212.371094 85.722656 213.300781 86.652344 214.429688 86.652344 L 238.578125 86.652344 C 239.710938 86.652344 240.640625 85.722656 240.640625 84.59375 C 240.640625 83.464844 239.710938 82.539062 238.578125 82.539062 L 214.390625 82.539062 C 213.257812 82.578125 212.371094 83.464844 212.371094 84.59375 Z M 256.914062 84.59375 C 256.914062 85.722656 257.84375 86.652344 258.972656 86.652344 C 260.105469 86.652344 261.035156 85.722656 261.035156 84.59375 C 261.035156 83.464844 260.105469 82.539062 258.972656 82.539062 C 257.84375 82.578125 256.914062 83.464844 256.914062 84.59375 Z M 182.648438 84.59375 C 182.648438 85.722656 183.578125 86.652344 184.707031 86.652344 L 202.757812 86.652344 C 203.890625 86.652344 204.820312 85.722656 204.820312 84.59375 C 204.820312 83.464844 203.890625 82.539062 202.757812 82.539062 L 184.707031 82.539062 C 183.578125 82.578125 182.648438 83.464844 182.648438 84.59375 Z M 267.941406 84.59375 C 267.941406 85.722656 268.867188 86.652344 270 86.652344 L 288.050781 86.652344 C 289.183594 86.652344 290.109375 85.722656 290.109375 84.59375 C 290.109375 83.464844 289.183594 82.539062 288.050781 82.539062 L 270 82.539062 C 268.867188 82.578125 267.941406 83.464844 267.941406 84.59375 Z M 246.453125 84.59375 C 246.453125 85.722656 247.382812 86.652344 248.515625 86.652344 L 251.582031 86.652344 C 252.714844 86.652344 253.644531 85.722656 253.644531 84.59375 C 253.644531 83.464844 252.714844 82.539062 251.582031 82.539062 L 248.515625 82.539062 C 247.382812 82.578125 246.453125 83.464844 246.453125 84.59375 Z M 203.6875 121.160156 C 203.6875 122.289062 204.617188 123.214844 205.746094 123.214844 L 222.585938 123.214844 C 223.71875 123.214844 224.648438 122.289062 224.648438 121.160156 C 224.648438 120.03125 223.71875 119.101562 222.585938 119.101562 L 205.746094 119.101562 C 204.617188 119.101562 203.6875 120.03125 203.6875 121.160156 Z M 256.429688 121.160156 C 256.429688 122.289062 257.359375 123.214844 258.488281 123.214844 L 284.496094 123.214844 C 285.628906 123.214844 286.558594 122.289062 286.558594 121.160156 C 286.558594 120.03125 285.628906 119.101562 284.496094 119.101562 L 258.488281 119.101562 C 257.359375 119.101562 256.429688 120.03125 256.429688 121.160156 Z M 241.8125 121.160156 C 241.8125 122.289062 242.738281 123.214844 243.871094 123.214844 C 245 123.214844 245.929688 122.289062 245.929688 121.160156 C 245.929688 120.03125 245 119.101562 243.871094 119.101562 C 242.738281 119.101562 241.8125 120.03125 241.8125 121.160156 Z M 183.050781 121.160156 C 183.050781 122.289062 183.980469 123.214844 185.109375 123.214844 L 189.675781 123.214844 C 190.804688 123.214844 191.734375 122.289062 191.734375 121.160156 C 191.734375 120.03125 190.804688 119.101562 189.675781 119.101562 L 185.109375 119.101562 C 183.980469 119.101562 183.050781 119.988281 183.050781 121.160156 Z M 195.410156 121.160156 C 195.410156 122.289062 196.335938 123.214844 197.46875 123.214844 C 198.597656 123.214844 199.527344 122.289062 199.527344 121.160156 C 199.527344 120.03125 198.597656 119.101562 197.46875 119.101562 C 196.335938 119.101562 195.410156 120.03125 195.410156 121.160156 Z M 224.96875 11.183594 C 224.96875 12.3125 225.898438 13.238281 227.03125 13.238281 L 231.59375 13.238281 C 232.722656 13.238281 233.652344 12.3125 233.652344 11.183594 C 233.652344 10.054688 232.722656 9.128906 231.59375 9.128906 L 227.03125 9.128906 C 225.898438 9.128906 224.96875 10.054688 224.96875 11.183594 Z M 254.410156 11.183594 C 254.410156 12.3125 255.339844 13.238281 256.46875 13.238281 L 270.242188 13.238281 C 271.371094 13.238281 272.300781 12.3125 272.300781 11.183594 C 272.300781 10.054688 271.371094 9.128906 270.242188 9.128906 L 256.46875 9.128906 C 255.339844 9.128906 254.410156 10.054688 254.410156 11.183594 Z M 241.8125 11.183594 C 241.8125 12.3125 242.738281 13.238281 243.871094 13.238281 C 245 13.238281 245.929688 12.3125 245.929688 11.183594 C 245.929688 10.054688 245 9.128906 243.871094 9.128906 C 242.738281 9.128906 241.8125 10.054688 241.8125 11.183594 Z M 185.351562 11.183594 C 185.351562 12.3125 186.28125 13.238281 187.414062 13.238281 L 211.601562 13.238281 C 212.734375 13.238281 213.664062 12.3125 213.664062 11.183594 C 213.664062 10.054688 212.734375 9.128906 211.601562 9.128906 L 187.414062 9.128906 C 186.28125 9.128906 185.351562 10.054688 185.351562 11.183594 Z M 247.988281 11.183594 C 247.988281 12.3125 248.917969 13.238281 250.050781 13.238281 C 251.179688 13.238281 252.109375 12.3125 252.109375 11.183594 C 252.109375 10.054688 251.179688 9.128906 250.050781 9.128906 C 248.917969 9.128906 247.988281 10.054688 247.988281 11.183594 Z M 276.542969 11.464844 C 276.542969 12.59375 277.46875 13.523438 278.601562 13.523438 L 286.234375 13.523438 C 287.363281 13.523438 288.292969 12.59375 288.292969 11.464844 C 288.292969 10.335938 287.363281 9.410156 286.234375 9.410156 L 278.5625 9.410156 C 277.429688 9.410156 276.542969 10.296875 276.542969 11.425781 C 276.542969 11.425781 276.542969 11.464844 276.542969 11.464844 Z M 279.53125 66.292969 C 279.53125 67.421875 280.457031 68.347656 281.589844 68.347656 L 289.261719 68.347656 C 290.394531 68.347656 291.320312 67.421875 291.320312 66.292969 C 291.320312 65.164062 290.394531 64.238281 289.261719 64.238281 L 281.628906 64.238281 C 280.5 64.238281 279.53125 65.164062 279.53125 66.292969 Z M 245.769531 66.292969 C 245.769531 67.421875 246.699219 68.347656 247.828125 68.347656 L 261.597656 68.347656 C 262.730469 68.347656 263.660156 67.421875 263.660156 66.292969 C 263.660156 65.164062 262.730469 64.238281 261.597656 64.238281 L 247.828125 64.238281 C 246.699219 64.238281 245.769531 65.164062 245.769531 66.292969 Z M 218.46875 66.332031 C 218.46875 67.460938 219.398438 68.386719 220.527344 68.386719 L 237.367188 68.386719 C 238.5 68.386719 239.429688 67.460938 239.429688 66.332031 C 239.429688 65.203125 238.5 64.277344 237.367188 64.277344 L 220.527344 64.277344 C 219.398438 64.316406 218.46875 65.203125 218.46875 66.332031 Z M 195.730469 66.292969 C 195.730469 67.421875 196.660156 68.347656 197.792969 68.347656 L 202.355469 68.347656 C 203.484375 68.347656 204.414062 67.421875 204.414062 66.292969 C 204.414062 65.164062 203.484375 64.238281 202.355469 64.238281 L 197.792969 64.238281 C 196.660156 64.238281 195.730469 65.164062 195.730469 66.292969 Z M 187.65625 66.292969 C 187.65625 67.421875 188.585938 68.347656 189.714844 68.347656 C 190.84375 68.347656 191.773438 67.421875 191.773438 66.292969 C 191.773438 65.164062 190.84375 64.238281 189.714844 64.238281 C 188.585938 64.238281 187.65625 65.164062 187.65625 66.292969 Z M 181.960938 66.332031 C 181.960938 67.460938 182.890625 68.386719 184.019531 68.386719 C 185.152344 68.386719 186.082031 67.460938 186.082031 66.332031 C 186.082031 65.203125 185.152344 64.277344 184.019531 64.277344 C 182.890625 64.316406 181.960938 65.203125 181.960938 66.332031 Z M 248.917969 102.855469 C 248.917969 103.984375 249.847656 104.914062 250.976562 104.914062 L 280.054688 104.914062 C 281.1875 104.914062 282.113281 103.984375 282.113281 102.855469 C 282.113281 101.726562 281.1875 100.800781 280.054688 100.800781 L 250.976562 100.800781 C 249.847656 100.839844 248.917969 101.726562 248.917969 102.855469 Z M 225.171875 102.855469 C 225.171875 103.984375 226.101562 104.914062 227.230469 104.914062 L 241.003906 104.914062 C 242.132812 104.914062 243.0625 103.984375 243.0625 102.855469 C 243.0625 101.726562 242.132812 100.800781 241.003906 100.800781 L 227.230469 100.800781 C 226.101562 100.839844 225.171875 101.726562 225.171875 102.855469 Z M 197.308594 102.855469 C 197.308594 103.984375 198.234375 104.914062 199.367188 104.914062 L 213.136719 104.914062 C 214.269531 104.914062 215.199219 103.984375 215.199219 102.855469 C 215.199219 101.726562 214.269531 100.800781 213.136719 100.800781 L 199.367188 100.800781 C 198.234375 100.839844 197.308594 101.726562 197.308594 102.855469 Z M 183.617188 102.855469 C 183.617188 103.984375 184.546875 104.914062 185.675781 104.914062 L 190.238281 104.914062 C 191.371094 104.914062 192.300781 103.984375 192.300781 102.855469 C 192.300781 101.726562 191.371094 100.800781 190.238281 100.800781 L 185.675781 100.800781 C 184.546875 100.839844 183.617188 101.726562 183.617188 102.855469 Z M 170.332031 102.855469 C 170.332031 103.984375 171.257812 104.914062 172.390625 104.914062 C 173.519531 104.914062 174.449219 103.984375 174.449219 102.855469 C 174.449219 101.726562 173.519531 100.800781 172.390625 100.800781 C 171.257812 100.839844 170.332031 101.726562 170.332031 102.855469 Z M 283.972656 102.855469 C 283.972656 103.984375 284.902344 104.914062 286.03125 104.914062 L 287.527344 104.914062 C 288.65625 104.914062 289.585938 103.984375 289.585938 102.855469 C 289.585938 101.726562 288.65625 100.800781 287.527344 100.800781 L 285.992188 100.800781 C 284.859375 100.839844 283.972656 101.726562 283.972656 102.855469 Z M 255.300781 2.03125 C 255.300781 3.160156 256.226562 4.089844 257.359375 4.089844 L 283.367188 4.089844 C 284.496094 4.089844 285.425781 3.160156 285.425781 2.03125 C 285.425781 0.902344 284.496094 -0.0234375 283.367188 -0.0234375 L 257.359375 -0.0234375 C 256.226562 -0.0234375 255.300781 0.902344 255.300781 2.03125 Z M 213.097656 2.03125 C 213.097656 3.160156 214.027344 4.089844 215.15625 4.089844 L 231.996094 4.089844 C 233.128906 4.089844 234.058594 3.160156 234.058594 2.03125 C 234.058594 0.902344 233.128906 -0.0234375 231.996094 -0.0234375 L 215.15625 -0.0234375 C 214.027344 -0.0234375 213.097656 0.902344 213.097656 2.03125 Z M 287 2.03125 C 287 3.160156 287.929688 4.089844 289.0625 4.089844 C 290.191406 4.089844 291.121094 3.160156 291.121094 2.03125 C 291.121094 0.902344 290.191406 -0.0234375 289.0625 -0.0234375 C 287.929688 -0.0234375 287 0.902344 287 2.03125 Z M 195.328125 2.03125 C 195.328125 3.160156 196.257812 4.089844 197.386719 4.089844 L 209.625 4.089844 C 210.753906 4.089844 211.683594 3.160156 211.683594 2.03125 C 211.683594 0.902344 210.753906 -0.0234375 209.625 -0.0234375 L 197.386719 -0.0234375 C 196.257812 -0.0234375 195.328125 0.863281 195.328125 2.03125 Z M 182.527344 2.03125 C 182.527344 3.160156 183.457031 4.089844 184.585938 4.089844 L 189.148438 4.089844 C 190.28125 4.089844 191.210938 3.160156 191.210938 2.03125 C 191.210938 0.902344 190.28125 -0.0234375 189.148438 -0.0234375 L 184.585938 -0.0234375 C 183.457031 -0.0234375 182.527344 0.902344 182.527344 2.03125 Z M 162.777344 112.128906 C 162.777344 113.257812 163.707031 114.183594 164.839844 114.183594 L 178.609375 114.183594 C 179.738281 114.183594 180.667969 113.257812 180.667969 112.128906 C 180.667969 111 179.738281 110.074219 178.609375 110.074219 L 164.839844 110.074219 C 163.707031 110.074219 162.777344 111 162.777344 112.128906 Z M 161.40625 75.402344 C 161.40625 76.53125 162.335938 77.460938 163.464844 77.460938 L 177.234375 77.460938 C 178.367188 77.460938 179.296875 76.53125 179.296875 75.402344 C 179.296875 74.273438 178.367188 73.347656 177.234375 73.347656 L 163.464844 73.347656 C 162.335938 73.386719 161.445312 74.273438 161.40625 75.402344 Z M 148.238281 75.402344 C 148.238281 76.53125 149.167969 77.460938 150.300781 77.460938 L 153.367188 77.460938 C 154.5 77.460938 155.429688 76.53125 155.429688 75.402344 C 155.429688 74.273438 154.5 73.347656 153.367188 73.347656 L 150.300781 73.347656 C 149.167969 73.386719 148.28125 74.273438 148.238281 75.402344 Z M 153.8125 139.421875 C 153.8125 140.550781 154.742188 141.476562 155.871094 141.476562 L 158.941406 141.476562 C 160.074219 141.476562 161 140.550781 161 139.421875 C 161 138.292969 160.074219 137.363281 158.941406 137.363281 L 155.871094 137.363281 C 154.742188 137.363281 153.8125 138.292969 153.8125 139.421875 Z M 156.761719 93.746094 C 156.761719 94.875 157.691406 95.800781 158.820312 95.800781 L 163.382812 95.800781 C 164.515625 95.800781 165.445312 94.875 165.445312 93.746094 C 165.445312 92.617188 164.515625 91.691406 163.382812 91.691406 L 158.820312 91.691406 C 157.691406 91.691406 156.761719 92.617188 156.761719 93.746094 Z M 175.015625 93.746094 C 175.015625 94.875 175.945312 95.800781 177.074219 95.800781 C 178.207031 95.800781 179.132812 94.875 179.132812 93.746094 C 179.132812 92.617188 178.207031 91.691406 177.074219 91.691406 C 175.945312 91.691406 175.015625 92.617188 175.015625 93.746094 Z M 146.664062 84.59375 C 146.664062 85.722656 147.59375 86.652344 148.722656 86.652344 L 164.839844 86.652344 C 165.96875 86.652344 166.898438 85.722656 166.898438 84.59375 C 166.898438 83.464844 165.96875 82.539062 164.839844 82.539062 L 148.722656 82.539062 C 147.59375 82.578125 146.664062 83.464844 146.664062 84.59375 Z M 169.886719 84.957031 C 169.886719 86.085938 170.816406 87.011719 171.945312 87.011719 L 175.015625 87.011719 C 176.144531 87.011719 177.074219 86.085938 177.074219 84.957031 C 177.074219 83.828125 176.144531 82.902344 175.015625 82.902344 L 171.945312 82.902344 C 170.816406 82.902344 169.886719 83.828125 169.886719 84.957031 Z M 146.300781 121.160156 C 146.300781 122.289062 147.230469 123.214844 148.359375 123.214844 L 165.203125 123.214844 C 166.332031 123.214844 167.261719 122.289062 167.261719 121.160156 C 167.261719 120.03125 166.332031 119.101562 165.203125 119.101562 L 148.359375 119.101562 C 147.230469 119.101562 146.300781 120.03125 146.300781 121.160156 Z M 174.085938 121.160156 C 174.085938 122.289062 175.015625 123.214844 176.144531 123.214844 C 177.277344 123.214844 178.207031 122.289062 178.207031 121.160156 C 178.207031 120.03125 177.277344 119.101562 176.144531 119.101562 C 175.015625 119.101562 174.085938 120.03125 174.085938 121.160156 Z M 169.199219 66.210938 C 169.199219 67.339844 170.128906 68.269531 171.257812 68.269531 L 185.03125 68.269531 C 186.160156 68.269531 187.089844 67.339844 187.089844 66.210938 C 187.089844 65.082031 186.160156 64.15625 185.03125 64.15625 L 171.257812 64.15625 C 170.128906 64.195312 169.199219 65.082031 169.199219 66.210938 Z M 145.535156 66.292969 C 145.535156 67.421875 146.464844 68.347656 147.59375 68.347656 L 160.800781 68.347656 C 161.929688 68.347656 162.859375 67.421875 162.859375 66.292969 C 162.859375 65.164062 161.929688 64.238281 160.800781 64.238281 L 147.59375 64.238281 C 146.464844 64.238281 145.535156 65.164062 145.535156 66.292969 Z M 145.613281 103.21875 C 145.613281 104.347656 146.542969 105.277344 147.675781 105.277344 L 161.445312 105.277344 C 162.578125 105.277344 163.503906 104.347656 163.503906 103.21875 C 163.503906 102.089844 162.578125 101.164062 161.445312 101.164062 L 147.675781 101.164062 C 146.542969 101.164062 145.613281 102.050781 145.613281 103.21875 Z M 153.449219 130.269531 C 153.449219 131.398438 154.378906 132.324219 155.507812 132.324219 L 172.347656 132.324219 C 173.480469 132.324219 174.410156 131.398438 174.410156 130.269531 C 174.410156 129.140625 173.480469 128.214844 172.347656 128.214844 L 155.507812 128.214844 C 154.378906 128.214844 153.449219 129.140625 153.449219 130.269531 Z M 146.664062 139.421875 C 146.664062 140.550781 147.59375 141.476562 148.722656 141.476562 C 149.855469 141.476562 150.785156 140.550781 150.785156 139.421875 C 150.785156 138.292969 149.855469 137.363281 148.722656 137.363281 C 147.59375 137.363281 146.664062 138.292969 146.664062 139.421875 Z M 152.480469 112.25 C 152.519531 113.378906 153.449219 114.265625 154.582031 114.226562 C 155.710938 114.183594 156.597656 113.257812 156.558594 112.128906 C 156.519531 111 155.589844 110.113281 154.460938 110.152344 C 153.328125 110.195312 152.441406 111.082031 152.480469 112.210938 C 152.480469 112.210938 152.480469 112.25 152.480469 112.25 Z M 175.015625 93.746094 C 175.015625 94.875 175.945312 95.800781 177.074219 95.800781 C 178.207031 95.800781 179.132812 94.875 179.132812 93.746094 C 179.132812 92.617188 178.207031 91.691406 177.074219 91.691406 C 175.945312 91.691406 175.015625 92.617188 175.015625 93.746094 Z M 168.070312 20.578125 C 168.070312 21.707031 168.996094 22.632812 170.128906 22.632812 L 177.761719 22.632812 C 178.890625 22.632812 179.820312 21.707031 179.820312 20.578125 C 179.820312 19.449219 178.890625 18.519531 177.761719 18.519531 L 170.128906 18.519531 C 168.996094 18.519531 168.070312 19.449219 168.070312 20.578125 Z M 146.707031 57.140625 C 146.707031 58.269531 147.632812 59.195312 148.765625 59.195312 L 154.460938 59.195312 C 155.589844 59.195312 156.519531 58.269531 156.519531 57.140625 C 156.519531 56.011719 155.589844 55.085938 154.460938 55.085938 L 148.765625 55.085938 C 147.632812 55.125 146.707031 56.011719 146.707031 57.140625 Z M 175.175781 29.726562 C 175.175781 30.855469 176.105469 31.785156 177.234375 31.785156 C 178.367188 31.785156 179.296875 30.855469 179.296875 29.726562 C 179.296875 28.597656 178.367188 27.671875 177.234375 27.671875 C 176.105469 27.671875 175.175781 28.597656 175.175781 29.726562 Z M 150.621094 29.726562 C 150.621094 30.855469 151.550781 31.785156 152.683594 31.785156 C 153.8125 31.785156 154.742188 30.855469 154.742188 29.726562 C 154.742188 28.597656 153.8125 27.671875 152.683594 27.671875 C 151.550781 27.671875 150.621094 28.597656 150.621094 29.726562 Z M 150.542969 38.839844 C 150.542969 39.96875 151.46875 40.894531 152.601562 40.894531 L 170.652344 40.894531 C 171.785156 40.894531 172.710938 39.96875 172.710938 38.839844 C 172.710938 37.710938 171.785156 36.78125 170.652344 36.78125 L 152.601562 36.78125 C 151.46875 36.78125 150.542969 37.710938 150.542969 38.839844 Z M 145.976562 11.183594 C 145.976562 12.3125 146.90625 13.238281 148.039062 13.238281 L 161.808594 13.238281 C 162.941406 13.238281 163.867188 12.3125 163.867188 11.183594 C 163.867188 10.054688 162.941406 9.128906 161.808594 9.128906 L 148.039062 9.128906 C 146.90625 9.128906 145.976562 10.015625 145.976562 11.183594 Z M 166.050781 11.464844 C 166.050781 12.59375 166.976562 13.523438 168.109375 13.523438 L 175.742188 13.523438 C 176.871094 13.523438 177.800781 12.59375 177.800781 11.464844 C 177.800781 10.335938 176.871094 9.410156 175.742188 9.410156 L 168.109375 9.410156 C 166.976562 9.410156 166.050781 10.335938 166.050781 11.464844 Z M 148.039062 2.03125 C 148.039062 3.160156 148.964844 4.089844 150.097656 4.089844 L 163.988281 4.089844 C 165.121094 4.089844 166.050781 3.160156 166.050781 2.03125 C 166.050781 0.902344 165.121094 -0.0234375 163.988281 -0.0234375 L 150.097656 -0.0234375 C 148.964844 -0.0234375 148.039062 0.902344 148.039062 2.03125 Z M 160.273438 57.140625 C 160.273438 58.269531 161.203125 59.195312 162.335938 59.195312 L 176.105469 59.195312 C 177.234375 59.195312 178.164062 58.269531 178.164062 57.140625 C 178.164062 56.011719 177.234375 55.085938 176.105469 55.085938 L 162.335938 55.085938 C 161.203125 55.125 160.273438 56.011719 160.273438 57.140625 Z M 150.621094 29.726562 C 150.621094 30.855469 151.550781 31.785156 152.683594 31.785156 C 153.8125 31.785156 154.742188 30.855469 154.742188 29.726562 C 154.742188 28.597656 153.8125 27.671875 152.683594 27.671875 C 151.550781 27.671875 150.621094 28.597656 150.621094 29.726562 Z M 149.371094 20.578125 C 149.371094 21.707031 150.300781 22.632812 151.429688 22.632812 L 165.203125 22.632812 C 166.332031 22.632812 167.261719 21.707031 167.261719 20.578125 C 167.261719 19.449219 166.332031 18.519531 165.203125 18.519531 L 151.429688 18.519531 C 150.300781 18.519531 149.371094 19.449219 149.371094 20.578125 Z M 148.039062 2.03125 C 148.039062 3.160156 148.964844 4.089844 150.097656 4.089844 L 163.988281 4.089844 C 165.121094 4.089844 166.050781 3.160156 166.050781 2.03125 C 166.050781 0.902344 165.121094 -0.0234375 163.988281 -0.0234375 L 150.097656 -0.0234375 C 148.964844 -0.0234375 148.039062 0.902344 148.039062 2.03125 Z M 150.621094 29.726562 C 150.621094 30.855469 151.550781 31.785156 152.683594 31.785156 C 153.8125 31.785156 154.742188 30.855469 154.742188 29.726562 C 154.742188 28.597656 153.8125 27.671875 152.683594 27.671875 C 151.550781 27.671875 150.621094 28.597656 150.621094 29.726562 Z M 165.644531 47.988281 C 165.644531 49.117188 166.574219 50.046875 167.707031 50.046875 C 168.835938 50.046875 169.765625 49.117188 169.765625 47.988281 C 169.765625 46.859375 168.835938 45.933594 167.707031 45.933594 C 166.574219 45.933594 165.644531 46.859375 165.644531 47.988281 Z M 146.179688 48.03125 C 146.179688 49.160156 147.109375 50.085938 148.238281 50.085938 C 149.371094 50.085938 150.300781 49.160156 150.300781 48.03125 C 150.300781 46.902344 149.371094 45.972656 148.238281 45.972656 C 147.109375 45.972656 146.179688 46.902344 146.179688 48.03125 Z M 146.179688 48.03125 " fill-opacity="1" fill-rule="nonzero"/></g></svg>