<svg xmlns="http://www.w3.org/2000/svg" xmlns:xlink="http://www.w3.org/1999/xlink" width="321" zoomAndPan="magnify" viewBox="0 0 240.75 141.750002" height="188" preserveAspectRatio="xMidYMid meet" version="1.0"><defs><clipPath id="a8edf1de49"><path d="M 0.0859375 2.105469 L 84.640625 2.105469 L 84.640625 141.5 L 0.0859375 141.5 Z M 0.0859375 2.105469 " clip-rule="nonzero"/></clipPath></defs><g clip-path="url(#a8edf1de49)"><path fill="#ffffff" d="M 14.730469 4.164062 C 14.730469 3.035156 13.800781 2.105469 12.671875 2.105469 L -21.265625 2.105469 C -22.394531 2.105469 -23.320312 3.035156 -23.320312 4.164062 C -23.320312 5.289062 -22.394531 6.21875 -21.265625 6.21875 L 12.714844 6.21875 C 13.84375 6.175781 14.730469 5.289062 14.730469 4.164062 Z M 61.203125 4.164062 C 61.203125 3.035156 60.277344 2.105469 59.148438 2.105469 L 39.277344 2.105469 C 38.148438 2.105469 37.21875 3.035156 37.21875 4.164062 C 37.21875 5.289062 38.148438 6.21875 39.277344 6.21875 L 59.148438 6.21875 C 60.277344 6.21875 61.203125 5.289062 61.203125 4.164062 Z M 34.601562 4.164062 C 34.601562 3.035156 33.671875 2.105469 32.542969 2.105469 L 18.800781 2.105469 C 17.671875 2.105469 16.746094 3.035156 16.746094 4.164062 C 16.746094 5.289062 17.671875 6.21875 18.800781 6.21875 L 32.542969 6.21875 C 33.671875 6.21875 34.601562 5.289062 34.601562 4.164062 Z M -25.132812 4.164062 C -25.132812 3.035156 -26.0625 2.105469 -27.191406 2.105469 L -31.785156 2.105469 C -32.914062 2.105469 -33.839844 3.035156 -33.839844 4.164062 C -33.839844 5.289062 -32.914062 6.21875 -31.785156 6.21875 L -27.230469 6.21875 C -26.101562 6.21875 -25.132812 5.289062 -25.132812 4.164062 Z M -37.1875 4.164062 C -37.1875 3.035156 -38.113281 2.105469 -39.242188 2.105469 L -59.074219 2.105469 C -60.203125 2.105469 -61.128906 3.035156 -61.128906 4.164062 C -61.128906 5.289062 -60.203125 6.21875 -59.074219 6.21875 L -39.242188 6.21875 C -38.113281 6.21875 -37.1875 5.289062 -37.1875 4.164062 Z M 18.195312 31.570312 C 18.195312 30.441406 17.269531 29.515625 16.140625 29.515625 L -6.753906 29.515625 C -7.882812 29.515625 -8.808594 30.441406 -8.808594 31.570312 C -8.808594 32.699219 -7.882812 33.625 -6.753906 33.625 L 16.140625 33.625 C 17.269531 33.625 18.195312 32.699219 18.195312 31.570312 Z M -16.226562 31.570312 C -16.226562 30.441406 -17.152344 29.515625 -18.28125 29.515625 L -32.027344 29.515625 C -33.15625 29.515625 -34.082031 30.441406 -34.082031 31.570312 C -34.082031 32.699219 -33.15625 33.625 -32.027344 33.625 L -18.28125 33.625 C -17.152344 33.625 -16.226562 32.699219 -16.226562 31.570312 Z M -44.402344 31.570312 C -44.402344 30.441406 -45.328125 29.515625 -46.457031 29.515625 L -51.011719 29.515625 C -52.140625 29.515625 -53.066406 30.441406 -53.066406 31.570312 C -53.066406 32.699219 -52.140625 33.625 -51.011719 33.625 L -46.457031 33.625 C -45.328125 33.625 -44.402344 32.738281 -44.402344 31.570312 Z M -56.894531 31.570312 C -56.894531 30.441406 -57.824219 29.515625 -58.953125 29.515625 C -60.082031 29.515625 -61.007812 30.441406 -61.007812 31.570312 C -61.007812 32.699219 -60.082031 33.625 -58.953125 33.625 C -57.824219 33.625 -56.894531 32.699219 -56.894531 31.570312 Z M 37.945312 31.570312 C 37.945312 30.441406 37.019531 29.515625 35.890625 29.515625 L 22.144531 29.515625 C 21.015625 29.515625 20.089844 30.441406 20.089844 31.570312 C 20.089844 32.699219 21.015625 33.625 22.144531 33.625 L 35.890625 33.625 C 37.019531 33.625 37.945312 32.699219 37.945312 31.570312 Z M 48.425781 31.570312 C 48.425781 30.441406 47.5 29.515625 46.371094 29.515625 L 41.816406 29.515625 C 40.6875 29.515625 39.757812 30.441406 39.757812 31.570312 C 39.757812 32.699219 40.6875 33.625 41.816406 33.625 L 46.371094 33.625 C 47.5 33.625 48.425781 32.699219 48.425781 31.570312 Z M 16.703125 68.089844 C 16.703125 66.960938 15.777344 66.03125 14.648438 66.03125 L 0.902344 66.03125 C -0.226562 66.03125 -1.152344 66.960938 -1.152344 68.089844 C -1.152344 69.21875 -0.226562 70.144531 0.902344 70.144531 L 14.648438 70.144531 C 15.777344 70.144531 16.703125 69.21875 16.703125 68.089844 Z M -12.839844 68.089844 C -12.839844 66.960938 -13.769531 66.03125 -14.894531 66.03125 L -28.640625 66.03125 C -29.769531 66.03125 -30.695312 66.960938 -30.695312 68.089844 C -30.695312 69.21875 -29.769531 70.144531 -28.640625 70.144531 L -14.894531 70.144531 C -13.769531 70.144531 -12.839844 69.21875 -12.839844 68.089844 Z M -3.367188 68.089844 C -3.367188 66.960938 -4.296875 66.03125 -5.425781 66.03125 L -8.488281 66.03125 C -9.617188 66.03125 -10.542969 66.960938 -10.542969 68.089844 C -10.542969 69.21875 -9.617188 70.144531 -8.488281 70.144531 L -5.425781 70.144531 C -4.296875 70.144531 -3.367188 69.21875 -3.367188 68.089844 Z M -54.4375 68.089844 C -54.4375 66.960938 -55.363281 66.03125 -56.492188 66.03125 C -57.621094 66.03125 -58.546875 66.960938 -58.546875 68.089844 C -58.546875 69.21875 -57.621094 70.144531 -56.492188 70.144531 C -55.363281 70.144531 -54.4375 69.21875 -54.4375 68.089844 Z M 37.945312 68.089844 C 37.945312 66.960938 37.019531 66.03125 35.890625 66.03125 L 22.144531 66.03125 C 21.015625 66.03125 20.089844 66.960938 20.089844 68.089844 C 20.089844 69.21875 21.015625 70.144531 22.144531 70.144531 L 35.890625 70.144531 C 37.019531 70.144531 37.945312 69.21875 37.945312 68.089844 Z M 48.425781 68.089844 C 48.425781 66.960938 47.5 66.03125 46.371094 66.03125 L 41.816406 66.03125 C 40.6875 66.03125 39.757812 66.960938 39.757812 68.089844 C 39.757812 69.21875 40.6875 70.144531 41.816406 70.144531 L 46.371094 70.144531 C 47.5 70.144531 48.425781 69.21875 48.425781 68.089844 Z M -35.535156 68.089844 C -35.535156 66.960938 -36.460938 66.03125 -37.589844 66.03125 L -42.144531 66.03125 C -43.273438 66.03125 -44.199219 66.960938 -44.199219 68.089844 C -44.199219 69.21875 -43.273438 70.144531 -42.144531 70.144531 L -37.589844 70.144531 C -36.460938 70.144531 -35.535156 69.21875 -35.535156 68.089844 Z M -15.058594 86.429688 C -15.058594 85.300781 -15.984375 84.371094 -17.113281 84.371094 L -43.070312 84.371094 C -44.199219 84.371094 -45.125 85.300781 -45.125 86.429688 C -45.125 87.558594 -44.199219 88.484375 -43.070312 88.484375 L -17.113281 88.484375 C -15.984375 88.445312 -15.058594 87.558594 -15.058594 86.429688 Z M 18.195312 86.429688 C 18.195312 85.300781 17.269531 84.371094 16.140625 84.371094 L -0.667969 84.371094 C -1.796875 84.371094 -2.722656 85.300781 -2.722656 86.429688 C -2.722656 87.558594 -1.796875 88.484375 -0.667969 88.484375 L 16.140625 88.484375 C 17.269531 88.445312 18.195312 87.558594 18.195312 86.429688 Z M -55.566406 86.429688 C -55.566406 85.300781 -56.492188 84.371094 -57.621094 84.371094 C -58.75 84.371094 -59.675781 85.300781 -59.675781 86.429688 C -59.675781 87.558594 -58.75 88.484375 -57.621094 88.484375 C -56.492188 88.484375 -55.566406 87.558594 -55.566406 86.429688 Z M 35.929688 86.429688 C 35.929688 85.300781 35.003906 84.371094 33.875 84.371094 L 21.660156 84.371094 C 20.535156 84.371094 19.605469 85.300781 19.605469 86.429688 C 19.605469 87.558594 20.535156 88.484375 21.660156 88.484375 L 33.875 88.484375 C 35.003906 88.445312 35.929688 87.558594 35.929688 86.429688 Z M 48.707031 86.429688 C 48.707031 85.300781 47.78125 84.371094 46.652344 84.371094 L 42.097656 84.371094 C 40.96875 84.371094 40.042969 85.300781 40.042969 86.429688 C 40.042969 87.558594 40.96875 88.484375 42.097656 88.484375 L 46.652344 88.484375 C 47.78125 88.445312 48.707031 87.558594 48.707031 86.429688 Z M 5.699219 95.539062 C 5.699219 94.410156 4.773438 93.480469 3.644531 93.480469 L -7.035156 93.480469 C -8.164062 93.480469 -9.09375 94.410156 -9.09375 95.539062 C -9.09375 96.667969 -8.164062 97.59375 -7.035156 97.59375 L 3.644531 97.59375 C 4.773438 97.59375 5.699219 96.667969 5.699219 95.539062 Z M -13.769531 95.539062 C -13.769531 94.410156 -14.695312 93.480469 -15.824219 93.480469 L -29.566406 93.480469 C -30.695312 93.480469 -31.625 94.410156 -31.625 95.539062 C -31.625 96.667969 -30.695312 97.59375 -29.566406 97.59375 L -15.824219 97.59375 C -14.695312 97.59375 -13.769531 96.667969 -13.769531 95.539062 Z M -44.402344 95.539062 C -44.402344 94.410156 -45.328125 93.480469 -46.457031 93.480469 L -51.011719 93.480469 C -52.140625 93.480469 -53.066406 94.410156 -53.066406 95.539062 C -53.066406 96.667969 -52.140625 97.59375 -51.011719 97.59375 L -46.457031 97.59375 C -45.328125 97.59375 -44.402344 96.707031 -44.402344 95.539062 Z M -36.300781 95.539062 C -36.300781 94.410156 -37.226562 93.480469 -38.355469 93.480469 L -41.417969 93.480469 C -42.546875 93.480469 -43.472656 94.410156 -43.472656 95.539062 C -43.472656 96.667969 -42.546875 97.59375 -41.417969 97.59375 L -38.355469 97.59375 C -37.226562 97.59375 -36.300781 96.667969 -36.300781 95.539062 Z M 32.183594 95.578125 C 32.183594 94.449219 31.253906 93.523438 30.125 93.523438 L 16.382812 93.523438 C 15.253906 93.523438 14.324219 94.449219 14.324219 95.578125 C 14.324219 96.707031 15.253906 97.632812 16.382812 97.632812 L 30.125 97.632812 C 31.253906 97.632812 32.183594 96.707031 32.183594 95.578125 Z M 58.097656 95.539062 C 58.097656 94.410156 57.171875 93.480469 56.042969 93.480469 L 45.363281 93.480469 C 44.234375 93.480469 43.308594 94.410156 43.308594 95.539062 C 43.308594 96.667969 44.234375 97.59375 45.363281 97.59375 L 56.042969 97.59375 C 57.171875 97.59375 58.097656 96.667969 58.097656 95.539062 Z M 13.277344 13.3125 C 13.277344 12.183594 12.351562 11.257812 11.222656 11.257812 L -8.609375 11.257812 C -9.738281 11.257812 -10.664062 12.183594 -10.664062 13.3125 C -10.664062 14.441406 -9.738281 15.367188 -8.609375 15.367188 L 11.261719 15.367188 C 12.390625 15.328125 13.277344 14.441406 13.277344 13.3125 Z M 29.238281 13.3125 C 29.238281 12.183594 28.3125 11.257812 27.183594 11.257812 L 22.628906 11.257812 C 21.5 11.257812 20.574219 12.183594 20.574219 13.3125 C 20.574219 14.441406 21.5 15.367188 22.628906 15.367188 L 27.183594 15.367188 C 28.3125 15.367188 29.238281 14.441406 29.238281 13.3125 Z M -23.320312 13.3125 C -23.320312 12.183594 -24.246094 11.257812 -25.375 11.257812 L -29.929688 11.257812 C -31.058594 11.257812 -31.988281 12.183594 -31.988281 13.3125 C -31.988281 14.441406 -31.058594 15.367188 -29.929688 15.367188 L -25.375 15.367188 C -24.246094 15.367188 -23.320312 14.441406 -23.320312 13.3125 Z M -14.9375 13.3125 C -14.9375 12.183594 -15.863281 11.257812 -16.992188 11.257812 L -20.054688 11.257812 C -21.183594 11.257812 -22.113281 12.183594 -22.113281 13.3125 C -22.113281 14.441406 -21.183594 15.367188 -20.054688 15.367188 L -16.992188 15.367188 C -15.863281 15.367188 -14.9375 14.441406 -14.9375 13.3125 Z M 48.667969 13.3125 C 48.667969 12.183594 47.742188 11.257812 46.613281 11.257812 L 32.867188 11.257812 C 31.738281 11.257812 30.8125 12.183594 30.8125 13.3125 C 30.8125 14.441406 31.738281 15.367188 32.867188 15.367188 L 46.613281 15.367188 C 47.742188 15.367188 48.667969 14.441406 48.667969 13.3125 Z M -39.765625 13.3125 C -39.765625 12.183594 -40.691406 11.257812 -41.820312 11.257812 L -58.628906 11.257812 C -59.757812 11.257812 -60.683594 12.183594 -60.683594 13.3125 C -60.683594 14.441406 -59.757812 15.367188 -58.628906 15.367188 L -41.820312 15.367188 C -40.691406 15.367188 -39.765625 14.441406 -39.765625 13.3125 Z M -2.480469 49.828125 C -2.480469 48.703125 -3.410156 47.773438 -4.539062 47.773438 L -9.09375 47.773438 C -10.222656 47.773438 -11.148438 48.703125 -11.148438 49.828125 C -11.148438 50.957031 -10.222656 51.886719 -9.09375 51.886719 L -4.539062 51.886719 C -3.410156 51.886719 -2.480469 50.957031 -2.480469 49.828125 Z M -26.425781 49.828125 C -26.425781 48.703125 -27.351562 47.773438 -28.480469 47.773438 L -42.222656 47.773438 C -43.351562 47.773438 -44.28125 48.703125 -44.28125 49.828125 C -44.28125 50.957031 -43.351562 51.886719 -42.222656 51.886719 L -28.480469 51.886719 C -27.351562 51.886719 -26.425781 50.957031 -26.425781 49.828125 Z M 29.804688 49.828125 C 29.804688 48.703125 28.875 47.773438 27.75 47.773438 L 3.605469 47.773438 C 2.476562 47.773438 1.546875 48.703125 1.546875 49.828125 C 1.546875 50.957031 2.476562 51.886719 3.605469 51.886719 L 27.75 51.886719 C 28.875 51.886719 29.804688 51 29.804688 49.828125 C 29.804688 49.871094 29.804688 49.828125 29.804688 49.828125 Z M -18 49.828125 C -18 48.703125 -18.925781 47.773438 -20.054688 47.773438 C -21.183594 47.773438 -22.113281 48.703125 -22.113281 49.828125 C -22.113281 50.957031 -21.183594 51.886719 -20.054688 51.886719 C -18.925781 51.886719 -18 50.957031 -18 49.828125 Z M 48.707031 49.828125 C 48.707031 48.703125 47.78125 47.773438 46.652344 47.773438 L 42.097656 47.773438 C 40.96875 47.773438 40.042969 48.703125 40.042969 49.828125 C 40.042969 50.957031 40.96875 51.886719 42.097656 51.886719 L 46.652344 51.886719 C 47.78125 51.886719 48.707031 50.957031 48.707031 49.828125 Z M -52.382812 49.828125 C -52.382812 48.703125 -53.308594 47.773438 -54.4375 47.773438 L -58.992188 47.773438 C -60.121094 47.773438 -61.046875 48.703125 -61.046875 49.828125 C -61.046875 50.957031 -60.121094 51.886719 -58.992188 51.886719 L -54.4375 51.886719 C -53.308594 51.886719 -52.382812 50.957031 -52.382812 49.828125 Z M -48.511719 122.988281 C -48.511719 121.859375 -49.4375 120.929688 -50.566406 120.929688 L -58.1875 120.929688 C -59.316406 120.929688 -60.242188 121.859375 -60.242188 122.988281 C -60.242188 124.117188 -59.316406 125.042969 -58.1875 125.042969 L -50.566406 125.042969 C -49.4375 125.042969 -48.511719 124.117188 -48.511719 122.988281 Z M -16.910156 122.988281 C -16.910156 121.859375 -17.839844 120.929688 -18.96875 120.929688 L -32.710938 120.929688 C -33.839844 120.929688 -34.769531 121.859375 -34.769531 122.988281 C -34.769531 124.117188 -33.839844 125.042969 -32.710938 125.042969 L -18.96875 125.042969 C -17.839844 125.042969 -16.910156 124.117188 -16.910156 122.988281 Z M 19.363281 122.988281 C 19.363281 121.859375 18.4375 120.929688 17.308594 120.929688 L 3.5625 120.929688 C 2.433594 120.929688 1.507812 121.859375 1.507812 122.988281 C 1.507812 124.117188 2.433594 125.042969 3.5625 125.042969 L 17.308594 125.042969 C 18.4375 125.042969 19.363281 124.117188 19.363281 122.988281 Z M 33.027344 122.988281 C 33.027344 121.859375 32.101562 120.929688 30.972656 120.929688 L 26.417969 120.929688 C 25.289062 120.929688 24.363281 121.859375 24.363281 122.988281 C 24.363281 124.117188 25.289062 125.042969 26.417969 125.042969 L 30.972656 125.042969 C 32.101562 125.042969 33.027344 124.117188 33.027344 122.988281 Z M 47.214844 122.988281 C 47.214844 121.859375 46.289062 120.929688 45.160156 120.929688 C 44.03125 120.929688 43.105469 121.859375 43.105469 122.988281 C 43.105469 124.117188 44.03125 125.042969 45.160156 125.042969 C 46.289062 125.042969 47.214844 124.117188 47.214844 122.988281 Z M 15.574219 113.835938 C 15.574219 112.707031 14.648438 111.78125 13.519531 111.78125 L -0.226562 111.78125 C -1.351562 111.78125 -2.28125 112.707031 -2.28125 113.835938 C -2.28125 114.964844 -1.351562 115.894531 -0.226562 115.894531 L 13.519531 115.894531 C 14.648438 115.894531 15.574219 114.964844 15.574219 113.835938 Z M -12.597656 113.835938 C -12.597656 112.707031 -13.527344 111.78125 -14.65625 111.78125 L -19.210938 111.78125 C -20.335938 111.78125 -21.265625 112.707031 -21.265625 113.835938 C -21.265625 114.964844 -20.335938 115.894531 -19.210938 115.894531 L -14.65625 115.894531 C -13.527344 115.894531 -12.597656 114.964844 -12.597656 113.835938 Z M -4.539062 113.835938 C -4.539062 112.707031 -5.464844 111.78125 -6.59375 111.78125 L -9.65625 111.78125 C -10.785156 111.78125 -11.710938 112.707031 -11.710938 113.835938 C -11.710938 114.964844 -10.785156 115.894531 -9.65625 115.894531 L -6.59375 115.894531 C -5.464844 115.894531 -4.539062 115.007812 -4.539062 113.835938 Z M -55.605469 113.835938 C -55.605469 112.707031 -56.535156 111.78125 -57.660156 111.78125 C -58.789062 111.78125 -59.71875 112.707031 -59.71875 113.835938 C -59.71875 114.964844 -58.789062 115.894531 -57.660156 115.894531 C -56.535156 115.894531 -55.605469 115.007812 -55.605469 113.835938 C -55.605469 113.878906 -55.605469 113.835938 -55.605469 113.835938 Z M 36.777344 113.835938 C 36.777344 112.707031 35.851562 111.78125 34.722656 111.78125 L 20.976562 111.78125 C 19.847656 111.78125 18.921875 112.707031 18.921875 113.835938 C 18.921875 114.964844 19.847656 115.894531 20.976562 115.894531 L 34.722656 115.894531 C 35.851562 115.894531 36.777344 114.964844 36.777344 113.835938 Z M 47.257812 113.835938 C 47.257812 112.707031 46.328125 111.78125 45.199219 111.78125 L 40.644531 111.78125 C 39.519531 111.78125 38.589844 112.707031 38.589844 113.835938 C 38.589844 114.964844 39.519531 115.894531 40.644531 115.894531 L 45.199219 115.894531 C 46.328125 115.894531 47.257812 115.007812 47.257812 113.835938 C 47.257812 113.878906 47.257812 113.835938 47.257812 113.835938 Z M -31.101562 113.835938 C -31.101562 112.707031 -32.027344 111.78125 -33.15625 111.78125 C -34.285156 111.78125 -35.210938 112.707031 -35.210938 113.835938 C -35.210938 114.964844 -34.285156 115.894531 -33.15625 115.894531 C -32.027344 115.894531 -31.101562 114.964844 -31.101562 113.835938 Z M -44.238281 113.835938 C -44.238281 112.707031 -45.167969 111.78125 -46.296875 111.78125 L -50.851562 111.78125 C -51.980469 111.78125 -52.90625 112.707031 -52.90625 113.835938 C -52.90625 114.964844 -51.980469 115.894531 -50.851562 115.894531 L -46.296875 115.894531 C -45.167969 115.894531 -44.238281 114.964844 -44.238281 113.835938 Z M 13.601562 104.726562 C 13.601562 103.597656 12.671875 102.671875 11.542969 102.671875 L -12.597656 102.671875 C -13.726562 102.671875 -14.65625 103.597656 -14.65625 104.726562 C -14.65625 105.855469 -13.726562 106.785156 -12.597656 106.785156 L 11.542969 106.785156 C 12.671875 106.785156 13.601562 105.855469 13.601562 104.726562 Z M -28.035156 104.726562 C -28.035156 103.597656 -28.964844 102.671875 -30.09375 102.671875 C -31.222656 102.671875 -32.148438 103.597656 -32.148438 104.726562 C -32.148438 105.855469 -31.222656 106.785156 -30.09375 106.785156 C -28.964844 106.785156 -28.035156 105.855469 -28.035156 104.726562 Z M 44.234375 104.726562 C 44.234375 103.597656 43.308594 102.671875 42.179688 102.671875 L 24.160156 102.671875 C 23.03125 102.671875 22.105469 103.597656 22.105469 104.726562 C 22.105469 105.855469 23.03125 106.785156 24.160156 106.785156 L 42.179688 106.785156 C 43.308594 106.785156 44.234375 105.855469 44.234375 104.726562 Z M -39.039062 104.726562 C -39.039062 103.597656 -39.96875 102.671875 -41.097656 102.671875 L -59.113281 102.671875 C -60.242188 102.671875 -61.167969 103.597656 -61.167969 104.726562 C -61.167969 105.855469 -60.242188 106.785156 -59.113281 106.785156 L -41.097656 106.785156 C -39.96875 106.785156 -39.039062 105.855469 -39.039062 104.726562 Z M 17.550781 58.980469 C 17.550781 57.851562 16.625 56.921875 15.496094 56.921875 L -8.609375 56.921875 C -9.738281 56.921875 -10.664062 57.851562 -10.664062 58.980469 C -10.664062 60.109375 -9.738281 61.035156 -8.609375 61.035156 L 15.535156 61.035156 C 16.664062 60.996094 17.550781 60.109375 17.550781 58.980469 Z M -26.90625 58.980469 C -26.90625 57.851562 -27.835938 56.921875 -28.964844 56.921875 C -30.09375 56.921875 -31.019531 57.851562 -31.019531 58.980469 C -31.019531 60.109375 -30.09375 61.035156 -28.964844 61.035156 C -27.835938 60.996094 -26.90625 60.109375 -26.90625 58.980469 Z M 47.214844 58.980469 C 47.214844 57.851562 46.289062 56.921875 45.160156 56.921875 L 27.144531 56.921875 C 26.015625 56.921875 25.089844 57.851562 25.089844 58.980469 C 25.089844 60.109375 26.015625 61.035156 27.144531 61.035156 L 45.160156 61.035156 C 46.289062 60.996094 47.214844 60.109375 47.214844 58.980469 Z M -37.910156 58.980469 C -37.910156 57.851562 -38.839844 56.921875 -39.96875 56.921875 L -57.984375 56.921875 C -59.113281 56.921875 -60.039062 57.851562 -60.039062 58.980469 C -60.039062 60.109375 -59.113281 61.035156 -57.984375 61.035156 L -39.96875 61.035156 C -38.839844 60.996094 -37.910156 60.109375 -37.910156 58.980469 Z M -16.46875 58.980469 C -16.46875 57.851562 -17.394531 56.921875 -18.523438 56.921875 L -21.585938 56.921875 C -22.714844 56.921875 -23.644531 57.851562 -23.644531 58.980469 C -23.644531 60.109375 -22.714844 61.035156 -21.585938 61.035156 L -18.523438 61.035156 C -17.394531 60.996094 -16.46875 60.109375 -16.46875 58.980469 Z M 26.214844 22.421875 C 26.214844 21.292969 25.289062 20.367188 24.160156 20.367188 L 7.351562 20.367188 C 6.222656 20.367188 5.296875 21.292969 5.296875 22.421875 C 5.296875 23.550781 6.222656 24.476562 7.351562 24.476562 L 24.160156 24.476562 C 25.289062 24.476562 26.214844 23.550781 26.214844 22.421875 Z M -26.425781 22.421875 C -26.425781 21.292969 -27.351562 20.367188 -28.480469 20.367188 L -54.4375 20.367188 C -55.566406 20.367188 -56.492188 21.292969 -56.492188 22.421875 C -56.492188 23.550781 -55.566406 24.476562 -54.4375 24.476562 L -28.480469 24.476562 C -27.351562 24.476562 -26.425781 23.550781 -26.425781 22.421875 Z M -11.832031 22.421875 C -11.832031 21.292969 -12.761719 20.367188 -13.890625 20.367188 C -15.015625 20.367188 -15.945312 21.292969 -15.945312 22.421875 C -15.945312 23.550781 -15.015625 24.476562 -13.890625 24.476562 C -12.761719 24.476562 -11.832031 23.550781 -11.832031 22.421875 Z M 46.8125 22.421875 C 46.8125 21.292969 45.886719 20.367188 44.757812 20.367188 L 40.203125 20.367188 C 39.074219 20.367188 38.148438 21.292969 38.148438 22.421875 C 38.148438 23.550781 39.074219 24.476562 40.203125 24.476562 L 44.757812 24.476562 C 45.886719 24.476562 46.8125 23.589844 46.8125 22.421875 Z M 34.480469 22.421875 C 34.480469 21.292969 33.550781 20.367188 32.421875 20.367188 C 31.296875 20.367188 30.367188 21.292969 30.367188 22.421875 C 30.367188 23.550781 31.296875 24.476562 32.421875 24.476562 C 33.550781 24.476562 34.480469 23.550781 34.480469 22.421875 Z M 4.976562 132.378906 C 4.976562 131.25 4.046875 130.324219 2.917969 130.324219 L -1.636719 130.324219 C -2.765625 130.324219 -3.691406 131.25 -3.691406 132.378906 C -3.691406 133.507812 -2.765625 134.433594 -1.636719 134.433594 L 2.917969 134.433594 C 4.046875 134.433594 4.976562 133.507812 4.976562 132.378906 Z M -24.410156 132.378906 C -24.410156 131.25 -25.335938 130.324219 -26.464844 130.324219 L -40.210938 130.324219 C -41.335938 130.324219 -42.265625 131.25 -42.265625 132.378906 C -42.265625 133.507812 -41.335938 134.433594 -40.210938 134.433594 L -26.464844 134.433594 C -25.335938 134.433594 -24.410156 133.507812 -24.410156 132.378906 Z M -11.832031 132.378906 C -11.832031 131.25 -12.761719 130.324219 -13.890625 130.324219 C -15.015625 130.324219 -15.945312 131.25 -15.945312 132.378906 C -15.945312 133.507812 -15.015625 134.433594 -13.890625 134.433594 C -12.761719 134.433594 -11.832031 133.507812 -11.832031 132.378906 Z M 44.515625 132.378906 C 44.515625 131.25 43.589844 130.324219 42.460938 130.324219 L 18.316406 130.324219 C 17.1875 130.324219 16.261719 131.25 16.261719 132.378906 C 16.261719 133.507812 17.1875 134.433594 18.316406 134.433594 L 42.460938 134.433594 C 43.589844 134.433594 44.515625 133.507812 44.515625 132.378906 Z M -18 132.378906 C -18 131.25 -18.925781 130.324219 -20.054688 130.324219 C -21.183594 130.324219 -22.113281 131.25 -22.113281 132.378906 C -22.113281 133.507812 -21.183594 134.433594 -20.054688 134.433594 C -18.925781 134.433594 -18 133.507812 -18 132.378906 Z M -46.496094 132.097656 C -46.496094 130.96875 -47.425781 130.039062 -48.550781 130.039062 L -56.171875 130.039062 C -57.300781 130.039062 -58.226562 130.96875 -58.226562 132.097656 C -58.226562 133.226562 -57.300781 134.152344 -56.171875 134.152344 L -48.511719 134.152344 C -47.382812 134.152344 -46.496094 133.265625 -46.496094 132.136719 C -46.496094 132.136719 -46.496094 132.097656 -46.496094 132.097656 Z M -49.480469 77.277344 C -49.480469 76.148438 -50.40625 75.222656 -51.535156 75.222656 L -59.195312 75.222656 C -60.320312 75.222656 -61.25 76.148438 -61.25 77.277344 C -61.25 78.40625 -60.320312 79.335938 -59.195312 79.335938 L -51.574219 79.335938 C -50.445312 79.335938 -49.480469 78.40625 -49.480469 77.277344 Z M -15.78125 77.277344 C -15.78125 76.148438 -16.710938 75.222656 -17.839844 75.222656 L -31.582031 75.222656 C -32.710938 75.222656 -33.640625 76.148438 -33.640625 77.277344 C -33.640625 78.40625 -32.710938 79.335938 -31.582031 79.335938 L -17.839844 79.335938 C -16.710938 79.335938 -15.78125 78.40625 -15.78125 77.277344 Z M 11.464844 77.238281 C 11.464844 76.109375 10.539062 75.183594 9.410156 75.183594 L -7.398438 75.183594 C -8.527344 75.183594 -9.453125 76.109375 -9.453125 77.238281 C -9.453125 78.367188 -8.527344 79.292969 -7.398438 79.292969 L 9.410156 79.292969 C 10.539062 79.253906 11.464844 78.367188 11.464844 77.238281 Z M 34.15625 77.277344 C 34.15625 76.148438 33.230469 75.222656 32.101562 75.222656 L 27.546875 75.222656 C 26.417969 75.222656 25.492188 76.148438 25.492188 77.277344 C 25.492188 78.40625 26.417969 79.335938 27.546875 79.335938 L 32.101562 79.335938 C 33.230469 79.335938 34.15625 78.40625 34.15625 77.277344 Z M 42.21875 77.277344 C 42.21875 76.148438 41.292969 75.222656 40.164062 75.222656 C 39.035156 75.222656 38.105469 76.148438 38.105469 77.277344 C 38.105469 78.40625 39.035156 79.335938 40.164062 79.335938 C 41.292969 79.335938 42.21875 78.40625 42.21875 77.277344 Z M 47.902344 77.238281 C 47.902344 76.109375 46.972656 75.183594 45.847656 75.183594 C 44.71875 75.183594 43.789062 76.109375 43.789062 77.238281 C 43.789062 78.367188 44.71875 79.292969 45.847656 79.292969 C 46.972656 79.253906 47.902344 78.367188 47.902344 77.238281 Z M -18.925781 40.71875 C -18.925781 39.59375 -19.855469 38.664062 -20.984375 38.664062 L -50.003906 38.664062 C -51.132812 38.664062 -52.058594 39.59375 -52.058594 40.71875 C -52.058594 41.847656 -51.132812 42.777344 -50.003906 42.777344 L -20.984375 42.777344 C -19.855469 42.734375 -18.925781 41.847656 -18.925781 40.71875 Z M 4.773438 40.71875 C 4.773438 39.59375 3.847656 38.664062 2.71875 38.664062 L -11.027344 38.664062 C -12.15625 38.664062 -13.082031 39.59375 -13.082031 40.71875 C -13.082031 41.847656 -12.15625 42.777344 -11.027344 42.777344 L 2.71875 42.777344 C 3.847656 42.734375 4.773438 41.847656 4.773438 40.71875 Z M 32.585938 40.71875 C 32.585938 39.59375 31.65625 38.664062 30.53125 38.664062 L 16.785156 38.664062 C 15.65625 38.664062 14.730469 39.59375 14.730469 40.71875 C 14.730469 41.847656 15.65625 42.777344 16.785156 42.777344 L 30.53125 42.777344 C 31.65625 42.734375 32.585938 41.847656 32.585938 40.71875 Z M 46.25 40.71875 C 46.25 39.59375 45.320312 38.664062 44.195312 38.664062 L 39.640625 38.664062 C 38.511719 38.664062 37.582031 39.59375 37.582031 40.71875 C 37.582031 41.847656 38.511719 42.777344 39.640625 42.777344 L 44.195312 42.777344 C 45.320312 42.734375 46.25 41.847656 46.25 40.71875 Z M 59.511719 40.71875 C 59.511719 39.59375 58.582031 38.664062 57.453125 38.664062 C 56.324219 38.664062 55.398438 39.59375 55.398438 40.71875 C 55.398438 41.847656 56.324219 42.777344 57.453125 42.777344 C 58.582031 42.734375 59.511719 41.847656 59.511719 40.71875 Z M -53.914062 40.71875 C -53.914062 39.59375 -54.839844 38.664062 -55.96875 38.664062 L -57.460938 38.664062 C -58.589844 38.664062 -59.515625 39.59375 -59.515625 40.71875 C -59.515625 41.847656 -58.589844 42.777344 -57.460938 42.777344 L -55.929688 42.777344 C -54.800781 42.734375 -53.914062 41.847656 -53.914062 40.71875 Z M -25.296875 141.527344 C -25.296875 140.398438 -26.222656 139.472656 -27.351562 139.472656 L -53.308594 139.472656 C -54.4375 139.472656 -55.363281 140.398438 -55.363281 141.527344 C -55.363281 142.65625 -54.4375 143.582031 -53.308594 143.582031 L -27.351562 143.582031 C -26.222656 143.582031 -25.296875 142.65625 -25.296875 141.527344 Z M 16.824219 141.527344 C 16.824219 140.398438 15.898438 139.472656 14.769531 139.472656 L -2.039062 139.472656 C -3.167969 139.472656 -4.09375 140.398438 -4.09375 141.527344 C -4.09375 142.65625 -3.167969 143.582031 -2.039062 143.582031 L 14.769531 143.582031 C 15.898438 143.582031 16.824219 142.65625 16.824219 141.527344 Z M -56.9375 141.527344 C -56.9375 140.398438 -57.863281 139.472656 -58.992188 139.472656 C -60.121094 139.472656 -61.046875 140.398438 -61.046875 141.527344 C -61.046875 142.65625 -60.121094 143.582031 -58.992188 143.582031 C -57.863281 143.582031 -56.9375 142.65625 -56.9375 141.527344 Z M 34.558594 141.527344 C 34.558594 140.398438 33.632812 139.472656 32.503906 139.472656 L 20.292969 139.472656 C 19.164062 139.472656 18.234375 140.398438 18.234375 141.527344 C 18.234375 142.65625 19.164062 143.582031 20.292969 143.582031 L 32.503906 143.582031 C 33.632812 143.582031 34.558594 142.695312 34.558594 141.527344 Z M 47.335938 141.527344 C 47.335938 140.398438 46.410156 139.472656 45.28125 139.472656 L 40.726562 139.472656 C 39.597656 139.472656 38.671875 140.398438 38.671875 141.527344 C 38.671875 142.65625 39.597656 143.582031 40.726562 143.582031 L 45.28125 143.582031 C 46.410156 143.582031 47.335938 142.65625 47.335938 141.527344 Z M 67.046875 31.449219 C 67.046875 30.320312 66.121094 29.394531 64.992188 29.394531 L 51.246094 29.394531 C 50.117188 29.394531 49.191406 30.320312 49.191406 31.449219 C 49.191406 32.578125 50.117188 33.503906 51.246094 33.503906 L 64.992188 33.503906 C 66.121094 33.503906 67.046875 32.578125 67.046875 31.449219 Z M 68.417969 68.167969 C 68.417969 67.039062 67.492188 66.113281 66.363281 66.113281 L 52.617188 66.113281 C 51.488281 66.113281 50.5625 67.039062 50.5625 68.167969 C 50.5625 69.296875 51.488281 70.226562 52.617188 70.226562 L 66.363281 70.226562 C 67.492188 70.183594 68.378906 69.296875 68.417969 68.167969 Z M 81.558594 68.167969 C 81.558594 67.039062 80.628906 66.113281 79.503906 66.113281 L 76.4375 66.113281 C 75.308594 66.113281 74.382812 67.039062 74.382812 68.167969 C 74.382812 69.296875 75.308594 70.226562 76.4375 70.226562 L 79.503906 70.226562 C 80.628906 70.183594 81.515625 69.296875 81.558594 68.167969 Z M 75.996094 4.164062 C 75.996094 3.035156 75.070312 2.105469 73.941406 2.105469 L 70.875 2.105469 C 69.746094 2.105469 68.820312 3.035156 68.820312 4.164062 C 68.820312 5.289062 69.746094 6.21875 70.875 6.21875 L 73.941406 6.21875 C 75.070312 6.21875 75.996094 5.289062 75.996094 4.164062 Z M 73.054688 49.828125 C 73.054688 48.703125 72.125 47.773438 70.996094 47.773438 L 66.441406 47.773438 C 65.3125 47.773438 64.386719 48.703125 64.386719 49.828125 C 64.386719 50.957031 65.3125 51.886719 66.441406 51.886719 L 70.996094 51.886719 C 72.125 51.886719 73.054688 50.957031 73.054688 49.828125 Z M 54.835938 49.828125 C 54.835938 48.703125 53.90625 47.773438 52.777344 47.773438 C 51.648438 47.773438 50.722656 48.703125 50.722656 49.828125 C 50.722656 50.957031 51.648438 51.886719 52.777344 51.886719 C 53.90625 51.886719 54.835938 50.957031 54.835938 49.828125 Z M 83.128906 58.980469 C 83.128906 57.851562 82.203125 56.921875 81.074219 56.921875 L 64.992188 56.921875 C 63.863281 56.921875 62.9375 57.851562 62.9375 58.980469 C 62.9375 60.109375 63.863281 61.035156 64.992188 61.035156 L 81.074219 61.035156 C 82.203125 60.996094 83.128906 60.109375 83.128906 58.980469 Z M 59.953125 58.617188 C 59.953125 57.488281 59.027344 56.5625 57.898438 56.5625 L 54.835938 56.5625 C 53.707031 56.5625 52.777344 57.488281 52.777344 58.617188 C 52.777344 59.746094 53.707031 60.671875 54.835938 60.671875 L 57.898438 60.671875 C 59.027344 60.671875 59.953125 59.746094 59.953125 58.617188 Z M 83.492188 22.421875 C 83.492188 21.292969 82.566406 20.367188 81.4375 20.367188 L 64.628906 20.367188 C 63.5 20.367188 62.574219 21.292969 62.574219 22.421875 C 62.574219 23.550781 63.5 24.476562 64.628906 24.476562 L 81.4375 24.476562 C 82.566406 24.476562 83.492188 23.550781 83.492188 22.421875 Z M 55.761719 22.421875 C 55.761719 21.292969 54.835938 20.367188 53.707031 20.367188 C 52.578125 20.367188 51.648438 21.292969 51.648438 22.421875 C 51.648438 23.550781 52.578125 24.476562 53.707031 24.476562 C 54.835938 24.476562 55.761719 23.550781 55.761719 22.421875 Z M 60.636719 77.359375 C 60.636719 76.230469 59.710938 75.304688 58.582031 75.304688 L 44.839844 75.304688 C 43.710938 75.304688 42.78125 76.230469 42.78125 77.359375 C 42.78125 78.488281 43.710938 79.414062 44.839844 79.414062 L 58.582031 79.414062 C 59.710938 79.375 60.636719 78.488281 60.636719 77.359375 Z M 84.257812 77.277344 C 84.257812 76.148438 83.332031 75.222656 82.203125 75.222656 L 69.023438 75.222656 C 67.894531 75.222656 66.964844 76.148438 66.964844 77.277344 C 66.964844 78.40625 67.894531 79.335938 69.023438 79.335938 L 82.203125 79.335938 C 83.332031 79.335938 84.257812 78.40625 84.257812 77.277344 Z M 84.179688 40.359375 C 84.179688 39.230469 83.25 38.300781 82.121094 38.300781 L 68.378906 38.300781 C 67.25 38.300781 66.320312 39.230469 66.320312 40.359375 C 66.320312 41.484375 67.25 42.414062 68.378906 42.414062 L 82.121094 42.414062 C 83.25 42.414062 84.179688 41.527344 84.179688 40.359375 Z M 76.359375 13.3125 C 76.359375 12.183594 75.429688 11.257812 74.300781 11.257812 L 57.496094 11.257812 C 56.367188 11.257812 55.4375 12.183594 55.4375 13.3125 C 55.4375 14.441406 56.367188 15.367188 57.496094 15.367188 L 74.300781 15.367188 C 75.429688 15.367188 76.359375 14.441406 76.359375 13.3125 Z M 83.128906 4.164062 C 83.128906 3.035156 82.203125 2.105469 81.074219 2.105469 C 79.945312 2.105469 79.019531 3.035156 79.019531 4.164062 C 79.019531 5.289062 79.945312 6.21875 81.074219 6.21875 C 82.203125 6.21875 83.128906 5.289062 83.128906 4.164062 Z M 77.324219 31.328125 C 77.285156 30.199219 76.359375 29.3125 75.230469 29.355469 C 74.101562 29.394531 73.214844 30.320312 73.253906 31.449219 C 73.296875 32.578125 74.222656 33.464844 75.351562 33.425781 C 76.480469 33.382812 77.367188 32.496094 77.324219 31.371094 C 77.324219 31.371094 77.324219 31.328125 77.324219 31.328125 Z M 54.835938 49.828125 C 54.835938 48.703125 53.90625 47.773438 52.777344 47.773438 C 51.648438 47.773438 50.722656 48.703125 50.722656 49.828125 C 50.722656 50.957031 51.648438 51.886719 52.777344 51.886719 C 53.90625 51.886719 54.835938 50.957031 54.835938 49.828125 Z M 61.765625 122.988281 C 61.765625 121.859375 60.839844 120.929688 59.710938 120.929688 L 52.09375 120.929688 C 50.964844 120.929688 50.039062 121.859375 50.039062 122.988281 C 50.039062 124.117188 50.964844 125.042969 52.09375 125.042969 L 59.710938 125.042969 C 60.839844 125.042969 61.765625 124.117188 61.765625 122.988281 Z M 83.089844 86.429688 C 83.089844 85.300781 82.164062 84.371094 81.035156 84.371094 L 75.351562 84.371094 C 74.222656 84.371094 73.296875 85.300781 73.296875 86.429688 C 73.296875 87.558594 74.222656 88.484375 75.351562 88.484375 L 81.035156 88.484375 C 82.164062 88.445312 83.089844 87.558594 83.089844 86.429688 Z M 54.671875 113.835938 C 54.671875 112.707031 53.746094 111.78125 52.617188 111.78125 C 51.488281 111.78125 50.5625 112.707031 50.5625 113.835938 C 50.5625 114.964844 51.488281 115.894531 52.617188 115.894531 C 53.746094 115.894531 54.671875 114.964844 54.671875 113.835938 Z M 79.179688 113.835938 C 79.179688 112.707031 78.253906 111.78125 77.125 111.78125 C 75.996094 111.78125 75.070312 112.707031 75.070312 113.835938 C 75.070312 114.964844 75.996094 115.894531 77.125 115.894531 C 78.253906 115.894531 79.179688 114.964844 79.179688 113.835938 Z M 79.261719 104.726562 C 79.261719 103.597656 78.332031 102.671875 77.203125 102.671875 L 59.1875 102.671875 C 58.058594 102.671875 57.132812 103.597656 57.132812 104.726562 C 57.132812 105.855469 58.058594 106.785156 59.1875 106.785156 L 77.203125 106.785156 C 78.332031 106.785156 79.261719 105.855469 79.261719 104.726562 Z M 83.816406 132.378906 C 83.816406 131.25 82.886719 130.324219 81.757812 130.324219 L 68.015625 130.324219 C 66.886719 130.324219 65.960938 131.25 65.960938 132.378906 C 65.960938 133.507812 66.886719 134.433594 68.015625 134.433594 L 81.757812 134.433594 C 82.886719 134.433594 83.816406 133.546875 83.816406 132.378906 Z M 63.78125 132.097656 C 63.78125 130.96875 62.855469 130.039062 61.726562 130.039062 L 54.109375 130.039062 C 52.980469 130.039062 52.054688 130.96875 52.054688 132.097656 C 52.054688 133.226562 52.980469 134.152344 54.109375 134.152344 L 61.726562 134.152344 C 62.855469 134.152344 63.78125 133.226562 63.78125 132.097656 Z M 81.757812 141.527344 C 81.757812 140.398438 80.832031 139.472656 79.703125 139.472656 L 65.839844 139.472656 C 64.710938 139.472656 63.78125 140.398438 63.78125 141.527344 C 63.78125 142.65625 64.710938 143.582031 65.839844 143.582031 L 79.703125 143.582031 C 80.832031 143.582031 81.757812 142.65625 81.757812 141.527344 Z M 69.546875 86.429688 C 69.546875 85.300781 68.621094 84.371094 67.492188 84.371094 L 53.746094 84.371094 C 52.617188 84.371094 51.691406 85.300781 51.691406 86.429688 C 51.691406 87.558594 52.617188 88.484375 53.746094 88.484375 L 67.492188 88.484375 C 68.621094 88.445312 69.546875 87.558594 69.546875 86.429688 Z M 79.179688 113.835938 C 79.179688 112.707031 78.253906 111.78125 77.125 111.78125 C 75.996094 111.78125 75.070312 112.707031 75.070312 113.835938 C 75.070312 114.964844 75.996094 115.894531 77.125 115.894531 C 78.253906 115.894531 79.179688 114.964844 79.179688 113.835938 Z M 80.429688 122.988281 C 80.429688 121.859375 79.503906 120.929688 78.375 120.929688 L 64.628906 120.929688 C 63.5 120.929688 62.574219 121.859375 62.574219 122.988281 C 62.574219 124.117188 63.5 125.042969 64.628906 125.042969 L 78.375 125.042969 C 79.503906 125.042969 80.429688 124.117188 80.429688 122.988281 Z M 81.757812 141.527344 C 81.757812 140.398438 80.832031 139.472656 79.703125 139.472656 L 65.839844 139.472656 C 64.710938 139.472656 63.78125 140.398438 63.78125 141.527344 C 63.78125 142.65625 64.710938 143.582031 65.839844 143.582031 L 79.703125 143.582031 C 80.832031 143.582031 81.757812 142.65625 81.757812 141.527344 Z M 79.179688 113.835938 C 79.179688 112.707031 78.253906 111.78125 77.125 111.78125 C 75.996094 111.78125 75.070312 112.707031 75.070312 113.835938 C 75.070312 114.964844 75.996094 115.894531 77.125 115.894531 C 78.253906 115.894531 79.179688 114.964844 79.179688 113.835938 Z M 64.1875 95.578125 C 64.1875 94.449219 63.257812 93.523438 62.128906 93.523438 C 61 93.523438 60.074219 94.449219 60.074219 95.578125 C 60.074219 96.707031 61 97.632812 62.128906 97.632812 C 63.257812 97.632812 64.1875 96.707031 64.1875 95.578125 Z M 83.613281 95.539062 C 83.613281 94.410156 82.6875 93.480469 81.558594 93.480469 C 80.429688 93.480469 79.503906 94.410156 79.503906 95.539062 C 79.503906 96.667969 80.429688 97.59375 81.558594 97.59375 C 82.6875 97.59375 83.613281 96.667969 83.613281 95.539062 Z M 83.613281 95.539062 " fill-opacity="1" fill-rule="nonzero"/></g></svg>