<svg xmlns="http://www.w3.org/2000/svg" xmlns:xlink="http://www.w3.org/1999/xlink" width="529" zoomAndPan="magnify" viewBox="0 0 396.75 396.749985" height="529" preserveAspectRatio="xMidYMid meet" version="1.0"><defs><clipPath id="f963333f83"><path d="M 16 73.136719 L 380 73.136719 L 380 119 L 16 119 Z M 16 73.136719 " clip-rule="nonzero"/></clipPath><clipPath id="9b13aef9d0"><path d="M 16 278 L 380 278 L 380 323.476562 L 16 323.476562 Z M 16 278 " clip-rule="nonzero"/></clipPath></defs><g clip-path="url(#f963333f83)"><path fill="#da6220" d="M 356.9375 73.242188 L 39.652344 73.242188 C 27.152344 73.242188 16.988281 83.40625 16.988281 95.90625 C 16.988281 108.40625 27.152344 118.570312 39.652344 118.570312 L 356.9375 118.570312 C 369.429688 118.570312 379.601562 108.40625 379.601562 95.90625 C 379.601562 83.40625 369.429688 73.242188 356.9375 73.242188 Z M 356.9375 73.242188 " fill-opacity="1" fill-rule="nonzero"/></g><path fill="#da6220" d="M 356.9375 175.632812 L 39.652344 175.632812 C 27.152344 175.632812 16.988281 185.796875 16.988281 198.296875 C 16.988281 210.792969 27.152344 220.957031 39.652344 220.957031 L 356.9375 220.957031 C 369.429688 220.957031 379.601562 210.792969 379.601562 198.296875 C 379.601562 185.796875 369.429688 175.632812 356.9375 175.632812 Z M 356.9375 175.632812 " fill-opacity="1" fill-rule="nonzero"/><g clip-path="url(#9b13aef9d0)"><path fill="#da6220" d="M 356.9375 278.019531 L 39.652344 278.019531 C 27.152344 278.019531 16.988281 288.183594 16.988281 300.683594 C 16.988281 313.183594 27.152344 323.347656 39.652344 323.347656 L 356.9375 323.347656 C 369.429688 323.347656 379.601562 313.183594 379.601562 300.683594 C 379.601562 288.183594 369.429688 278.019531 356.9375 278.019531 Z M 356.9375 278.019531 " fill-opacity="1" fill-rule="nonzero"/></g></svg>